<svg width="34" height="34" viewBox="0 0 34 34" fill="none" xmlns="http://www.w3.org/2000/svg">
<path d="M20.8208 7.11617C22.3172 7.40756 23.6923 8.13797 24.7703 9.21392C25.8484 10.2899 26.5802 11.6624 26.8721 13.1559M20.8208 1C23.9296 1.3447 26.8286 2.7342 29.0418 4.94036C31.2549 7.14651 32.6507 10.0382 33 13.1406M31.468 25.3424V29.9295C31.4698 30.3553 31.3824 30.7769 31.2114 31.167C31.0405 31.5572 30.7898 31.9075 30.4754 32.1953C30.161 32.4832 29.7899 32.7024 29.3857 32.8388C28.9815 32.9752 28.5533 33.0259 28.1283 32.9876C23.4142 32.4763 18.8859 30.8686 14.9074 28.2934C11.2059 25.9458 8.06768 22.8136 5.71559 19.1192C3.12652 15.1302 1.51529 10.5886 1.01243 5.86236C0.974151 5.43953 1.0245 5.01337 1.16027 4.61103C1.29604 4.20868 1.51426 3.83896 1.80104 3.5254C2.08782 3.21184 2.43687 2.96132 2.82597 2.78978C3.21507 2.61824 3.63569 2.52944 4.06106 2.52904H8.65697C9.40045 2.52174 10.1212 2.78451 10.6849 3.26839C11.2487 3.75226 11.6169 4.42421 11.7209 5.159C11.9149 6.62698 12.2746 8.06835 12.7933 9.45561C12.9994 10.0029 13.044 10.5977 12.9218 11.1695C12.7997 11.7413 12.5158 12.2662 12.1039 12.6819L10.1583 14.6238C12.3392 18.4518 15.5148 21.6214 19.3501 23.798L21.2957 21.8562C21.7123 21.445 22.2381 21.1617 22.811 21.0398C23.3839 20.9178 23.9799 20.9624 24.5282 21.1681C25.9181 21.6857 27.3622 22.0448 28.833 22.2384C29.5772 22.3432 30.2569 22.7173 30.7427 23.2896C31.2285 23.8619 31.4867 24.5925 31.468 25.3424Z" stroke="#353945" stroke-width="2" stroke-linecap="round" stroke-linejoin="round"/>
</svg>
