<svg width="17" height="17" viewBox="0 0 17 17" fill="none" xmlns="http://www.w3.org/2000/svg">
<path d="M10.291 3.8369C10.9924 3.97221 11.637 4.31138 12.1424 4.81101C12.6477 5.31063 12.9907 5.94798 13.1276 6.64148M10.291 0.996826C11.7483 1.15689 13.1072 1.80211 14.1446 2.82655C15.182 3.85099 15.8363 5.19376 16 6.63438M15.2819 12.3003V14.4304C15.2827 14.6281 15.2417 14.8239 15.1616 15.0051C15.0815 15.1862 14.964 15.3489 14.8166 15.4826C14.6692 15.6162 14.4952 15.718 14.3058 15.7814C14.1163 15.8447 13.9156 15.8682 13.7164 15.8504C11.5067 15.613 9.38404 14.8665 7.5191 13.6707C5.78402 12.5806 4.31297 11.1261 3.21043 9.41056C1.99681 7.55826 1.24154 5.44936 1.00583 3.25469C0.987883 3.05834 1.01148 2.86046 1.07513 2.67363C1.13877 2.48679 1.24106 2.31511 1.37549 2.16951C1.50992 2.02391 1.67353 1.90758 1.85592 1.82792C2.03831 1.74826 2.23548 1.70703 2.43487 1.70685H4.58921C4.93771 1.70345 5.27557 1.82547 5.53981 2.05016C5.80406 2.27485 5.97665 2.58688 6.02543 2.92808C6.11636 3.60975 6.28499 4.27905 6.52811 4.92323C6.62472 5.17737 6.64564 5.45356 6.58836 5.71908C6.53109 5.9846 6.39803 6.22833 6.20496 6.42138L5.29296 7.3231C6.31523 9.10067 7.8038 10.5725 9.60163 11.5832L10.5136 10.6815C10.7089 10.4906 10.9554 10.359 11.2239 10.3024C11.4925 10.2458 11.7718 10.2665 12.0288 10.362C12.6804 10.6024 13.3573 10.7691 14.0467 10.859C14.3956 10.9077 14.7142 11.0814 14.9419 11.3471C15.1696 11.6129 15.2906 11.9521 15.2819 12.3003Z" stroke="#37807A" stroke-width="2" stroke-linecap="round" stroke-linejoin="round"/>
</svg>
