<svg width="20" height="20" viewBox="0 0 20 20" fill="none" xmlns="http://www.w3.org/2000/svg">
<path fill-rule="evenodd" clip-rule="evenodd" d="M10 17.8758C14.4183 17.8758 18 14.3497 18 9.99999C18 5.65032 14.4183 2.12422 10 2.12422C5.58172 2.12422 2 5.65032 2 9.99999C2 14.3497 5.58172 17.8758 10 17.8758ZM10 19.8447C15.5228 19.8447 20 15.437 20 9.99999C20 4.5629 15.5228 0.155273 10 0.155273C4.47715 0.155273 0 4.5629 0 9.99999C0 15.437 4.47715 19.8447 10 19.8447Z" fill="#37807A"/>
<path d="M9.45798 7.81748C9.45798 7.28182 9.89906 6.84756 10.4432 6.84756H11.4284C11.9726 6.84756 12.4136 6.41332 12.4136 5.87764C12.4136 5.34197 11.9726 4.90771 11.4284 4.90771H10.4432C8.81078 4.90771 7.48753 6.21047 7.48753 7.81748V9.75733H6.50231C5.95819 9.75733 5.51709 10.1916 5.51709 10.7273C5.51709 11.2629 5.95818 11.6972 6.50231 11.6972H7.48753V17.5167C7.48753 18.0524 7.92862 18.4866 8.47275 18.4866C9.01689 18.4866 9.45798 18.0524 9.45798 17.5167V11.6972H11.4284C11.9726 11.6972 12.4136 11.2629 12.4136 10.7273C12.4136 10.1916 11.9726 9.75733 11.4284 9.75733H9.45798V7.81748Z" fill="#37807A"/>
</svg>
