<svg width="1451" height="420" viewBox="0 0 1451 420" fill="none" xmlns="http://www.w3.org/2000/svg">
<mask id="path-1-outside-1_36_3235" maskUnits="userSpaceOnUse" x="57.4746" y="54.5249" width="1345" height="337" fill="black">
<rect fill="white" x="57.4746" y="54.5249" width="1345" height="337"/>
<path d="M314.909 178.625C281.609 178.625 257.159 155.975 257.159 124.025C257.159 92.0749 281.609 69.4249 314.909 69.4249C334.259 69.4249 349.859 76.4749 360.059 89.2249L341.159 106.325C334.559 98.3749 326.459 94.0249 316.409 94.0249C299.159 94.0249 287.159 106.025 287.159 124.025C287.159 142.025 299.159 154.025 316.409 154.025C326.459 154.025 334.559 149.675 341.159 141.725L360.059 158.825C349.859 171.575 334.259 178.625 314.909 178.625ZM423.402 93.8749C442.452 93.8749 457.002 104.825 457.002 130.025V176.525H428.502V134.675C428.502 122.975 423.402 118.025 415.152 118.025C406.002 118.025 398.952 123.725 398.952 137.225V176.525H370.452V65.2249H398.952V102.725C405.252 96.8749 413.802 93.8749 423.402 93.8749ZM549.895 62.6749L521.695 85.4749H501.295L521.395 62.6749H549.895ZM530.395 95.2249H558.895V176.525H531.745V167.825C525.595 174.575 516.895 177.875 507.595 177.875C487.645 177.875 473.095 166.475 473.095 140.675V95.2249H501.595V136.025C501.595 148.625 506.545 153.575 515.095 153.575C523.495 153.575 530.395 148.025 530.395 134.375V95.2249ZM628.702 93.8749C647.752 93.8749 662.302 104.825 662.302 130.025V176.525H633.802V134.675C633.802 122.975 628.702 118.025 620.452 118.025C611.302 118.025 604.252 123.725 604.252 137.225V176.525H575.752V95.2249H602.902V104.075C609.352 97.3249 618.502 93.8749 628.702 93.8749ZM740.168 95.2249H767.318V161.675C767.318 192.425 749.918 206.975 719.618 206.975C704.018 206.975 689.168 203.375 679.268 196.325L689.618 176.375C696.368 181.775 707.468 185.075 717.068 185.075C732.368 185.075 738.818 178.175 738.818 165.425V162.725C733.268 169.175 725.018 172.325 714.668 172.325C693.068 172.325 674.768 157.025 674.768 133.025C674.768 109.175 693.068 93.8749 714.668 93.8749C725.918 93.8749 734.618 97.4749 740.168 105.125V95.2249ZM721.418 149.675C731.618 149.675 739.118 142.925 739.118 133.025C739.118 123.125 731.618 116.525 721.418 116.525C711.218 116.525 703.568 123.125 703.568 133.025C703.568 142.925 711.218 149.675 721.418 149.675ZM875.332 153.275L882.382 173.225C877.432 176.375 870.082 177.875 862.582 177.875C841.732 177.875 829.582 167.675 829.582 146.825V119.525H817.732V98.2249H829.582V77.0749H858.082V98.2249H876.682V119.525H858.082V146.525C858.082 152.525 861.532 155.825 866.632 155.825C869.782 155.825 872.932 154.925 875.332 153.275ZM930.028 74.0749L917.128 85.4749H898.228L917.728 62.6749H942.328L961.828 85.4749H942.928L930.028 74.0749ZM930.328 93.8749C957.178 93.8749 976.228 111.275 976.228 135.725C976.228 160.325 957.178 177.875 930.328 177.875C903.778 177.875 884.428 160.325 884.428 135.725C884.428 111.275 903.778 93.8749 930.328 93.8749ZM930.328 155.225C940.078 155.225 947.428 148.175 947.428 135.725C947.428 123.425 940.078 116.525 930.328 116.525C920.728 116.525 913.228 123.425 913.228 135.725C913.228 148.175 920.728 155.225 930.328 155.225ZM1002.18 86.2249C991.68 86.2249 984.78 79.6249 984.78 71.0749C984.78 62.5249 991.68 55.9249 1002.18 55.9249C1012.68 55.9249 1019.58 62.0749 1019.58 70.6249C1019.58 79.6249 1012.68 86.2249 1002.18 86.2249ZM987.93 176.525V95.2249H1016.43V176.525H987.93ZM1075.6 176.525V65.2249H1104.1V176.525H1075.6ZM1173.63 85.4749H1153.23L1125.03 62.6749H1153.53L1173.63 85.4749ZM1155.78 93.8749C1182.18 93.8749 1197.33 105.575 1197.33 131.375V176.525H1170.78V166.025C1166.73 173.825 1158.63 177.875 1146.78 177.875C1127.28 177.875 1116.48 166.925 1116.48 152.825C1116.48 137.825 1127.43 128.525 1152.63 128.525H1168.83C1168.38 120.275 1162.83 115.625 1151.58 115.625C1143.78 115.625 1135.08 118.325 1129.53 122.675L1119.93 103.325C1129.23 97.1749 1143.03 93.8749 1155.78 93.8749ZM1154.73 159.875C1161.03 159.875 1166.58 156.875 1168.83 150.425V143.375H1156.53C1147.38 143.375 1144.08 146.675 1144.08 151.625C1144.08 156.425 1147.98 159.875 1154.73 159.875ZM129.565 254.525H159.265V359.525H129.565V318.575H89.065V359.525H59.365V254.525H89.065V293.975H129.565V254.525ZM218.165 360.875C191.615 360.875 172.265 343.325 172.265 318.725C172.265 294.275 191.615 276.875 218.165 276.875C245.015 276.875 264.065 294.275 264.065 318.725C264.065 343.325 245.015 360.875 218.165 360.875ZM218.165 338.225C227.915 338.225 235.265 331.175 235.265 318.725C235.265 306.425 227.915 299.525 218.165 299.525C208.565 299.525 201.065 306.425 201.065 318.725C201.065 331.175 208.565 338.225 218.165 338.225ZM326.509 268.475H306.109L277.909 245.675H306.409L326.509 268.475ZM308.659 276.875C335.059 276.875 350.209 288.575 350.209 314.375V359.525H323.659V349.025C319.609 356.825 311.509 360.875 299.659 360.875C280.159 360.875 269.359 349.925 269.359 335.825C269.359 320.825 280.309 311.525 305.509 311.525H321.709C321.259 303.275 315.709 298.625 304.459 298.625C296.659 298.625 287.959 301.325 282.409 305.675L272.809 286.325C282.109 280.175 295.909 276.875 308.659 276.875ZM307.609 342.875C313.909 342.875 319.459 339.875 321.709 333.425V326.375H309.409C300.259 326.375 296.959 329.675 296.959 334.625C296.959 339.425 300.859 342.875 307.609 342.875ZM419.649 276.875C438.699 276.875 453.249 287.825 453.249 313.025V359.525H424.749V317.675C424.749 305.975 419.649 301.025 411.399 301.025C402.249 301.025 395.199 306.725 395.199 320.225V359.525H366.699V278.225H393.849V287.075C400.299 280.325 409.449 276.875 419.649 276.875ZM531.114 278.225H558.264V344.675C558.264 375.425 540.864 389.975 510.564 389.975C494.964 389.975 480.114 386.375 470.214 379.325L480.564 359.375C487.314 364.775 498.414 368.075 508.014 368.075C523.314 368.075 529.764 361.175 529.764 348.425V345.725C524.214 352.175 515.964 355.325 505.614 355.325C484.014 355.325 465.714 340.025 465.714 316.025C465.714 292.175 484.014 276.875 505.614 276.875C516.864 276.875 525.564 280.475 531.114 288.125V278.225ZM512.364 332.675C522.564 332.675 530.064 325.925 530.064 316.025C530.064 306.125 522.564 299.525 512.364 299.525C502.164 299.525 494.514 306.125 494.514 316.025C494.514 325.925 502.164 332.675 512.364 332.675ZM740.678 359.525H713.378L713.078 303.875L686.078 349.175H672.878L646.028 305.375V359.525H618.578V254.525H643.028L679.928 315.125L715.928 254.525H740.378L740.678 359.525ZM793.493 276.875C819.893 276.875 835.043 288.575 835.043 314.375V359.525H808.493V349.025C804.443 356.825 796.343 360.875 784.493 360.875C764.993 360.875 754.193 349.925 754.193 335.825C754.193 320.825 765.143 311.525 790.343 311.525H806.543C806.093 303.275 800.543 298.625 789.293 298.625C781.493 298.625 772.793 301.325 767.243 305.675L757.643 286.325C766.943 280.175 780.743 276.875 793.493 276.875ZM792.443 342.875C798.743 342.875 804.293 339.875 806.543 333.425V326.375H794.243C785.093 326.375 781.793 329.675 781.793 334.625C781.793 339.425 785.693 342.875 792.443 342.875ZM865.783 269.225C855.283 269.225 848.383 262.625 848.383 254.075C848.383 245.525 855.283 238.925 865.783 238.925C876.283 238.925 883.183 245.075 883.183 253.625C883.183 262.625 876.283 269.225 865.783 269.225ZM851.533 359.525V278.225H880.033V359.525H851.533ZM1062.66 359.525H1035.36L1035.06 303.875L1008.06 349.175H994.856L968.006 305.375V359.525H940.556V254.525H965.006L1001.91 315.125L1037.91 254.525H1062.36L1062.66 359.525ZM1163.92 319.025C1163.92 321.125 1163.62 323.825 1163.47 326.075H1104.37C1106.77 334.325 1113.82 339.125 1124.32 339.125C1132.27 339.125 1137.52 336.875 1143.07 332.075L1158.07 347.675C1150.27 356.375 1138.87 360.875 1123.42 360.875C1094.47 360.875 1075.72 343.025 1075.72 318.725C1075.72 294.275 1094.77 276.875 1120.42 276.875C1144.42 276.875 1163.92 292.175 1163.92 319.025ZM1120.57 297.125C1111.72 297.125 1105.57 302.525 1103.92 311.075H1137.22C1135.72 302.525 1129.42 297.125 1120.57 297.125ZM1233.46 248.225H1261.96V359.525H1234.81V351.425C1229.41 357.875 1221.46 360.875 1210.96 360.875C1188.76 360.875 1170.91 344.675 1170.91 318.725C1170.91 292.925 1188.76 276.875 1210.96 276.875C1220.41 276.875 1228.06 279.575 1233.46 285.275V248.225ZM1216.96 338.225C1226.56 338.225 1233.91 331.175 1233.91 318.725C1233.91 306.425 1226.56 299.525 1216.96 299.525C1207.21 299.525 1199.86 306.425 1199.86 318.725C1199.86 331.175 1207.21 338.225 1216.96 338.225ZM1293.05 269.225C1282.55 269.225 1275.65 262.625 1275.65 254.075C1275.65 245.525 1282.55 238.925 1293.05 238.925C1303.55 238.925 1310.45 245.075 1310.45 253.625C1310.45 262.625 1303.55 269.225 1293.05 269.225ZM1278.8 359.525V278.225H1307.3V359.525H1278.8ZM1358.97 276.875C1385.37 276.875 1400.52 288.575 1400.52 314.375V359.525H1373.97V349.025C1369.92 356.825 1361.82 360.875 1349.97 360.875C1330.47 360.875 1319.67 349.925 1319.67 335.825C1319.67 320.825 1330.62 311.525 1355.82 311.525H1372.02C1371.57 303.275 1366.02 298.625 1354.77 298.625C1346.97 298.625 1338.27 301.325 1332.72 305.675L1323.12 286.325C1332.42 280.175 1346.22 276.875 1358.97 276.875ZM1357.92 342.875C1364.22 342.875 1369.77 339.875 1372.02 333.425V326.375H1359.72C1350.57 326.375 1347.27 329.675 1347.27 334.625C1347.27 339.425 1351.17 342.875 1357.92 342.875Z"/>
</mask>
<path d="M360.059 89.2249L360.73 89.9664L361.428 89.3351L360.84 88.6002L360.059 89.2249ZM341.159 106.325L340.39 106.964L341.056 107.767L341.83 107.066L341.159 106.325ZM341.159 141.725L341.83 140.983L341.056 140.283L340.39 141.086L341.159 141.725ZM360.059 158.825L360.84 159.45L361.428 158.715L360.73 158.083L360.059 158.825ZM314.909 178.625V177.625C282.102 177.625 258.159 155.365 258.159 124.025H257.159H256.159C256.159 156.585 281.116 179.625 314.909 179.625V178.625ZM257.159 124.025H258.159C258.159 92.6848 282.102 70.4249 314.909 70.4249V69.4249V68.4249C281.116 68.4249 256.159 91.465 256.159 124.025H257.159ZM314.909 69.4249V70.4249C334.004 70.4249 349.297 77.3724 359.278 89.8496L360.059 89.2249L360.84 88.6002C350.422 75.5774 334.514 68.4249 314.909 68.4249V69.4249ZM360.059 89.2249L359.388 88.4834L340.488 105.583L341.159 106.325L341.83 107.066L360.73 89.9664L360.059 89.2249ZM341.159 106.325L341.929 105.686C335.168 97.5426 326.8 93.0249 316.409 93.0249V94.0249V95.0249C326.119 95.0249 333.951 99.2072 340.39 106.964L341.159 106.325ZM316.409 94.0249V93.0249C307.546 93.0249 299.966 96.1125 294.602 101.574C289.239 107.035 286.159 114.798 286.159 124.025H287.159H288.159C288.159 115.252 291.08 108.015 296.029 102.976C300.977 97.9373 308.023 95.0249 316.409 95.0249V94.0249ZM287.159 124.025H286.159C286.159 133.252 289.239 141.015 294.602 146.476C299.966 151.937 307.546 155.025 316.409 155.025V154.025V153.025C308.023 153.025 300.977 150.112 296.029 145.074C291.08 140.035 288.159 132.798 288.159 124.025H287.159ZM316.409 154.025V155.025C326.8 155.025 335.168 150.507 341.929 142.364L341.159 141.725L340.39 141.086C333.951 148.843 326.119 153.025 316.409 153.025V154.025ZM341.159 141.725L340.488 142.466L359.388 159.566L360.059 158.825L360.73 158.083L341.83 140.983L341.159 141.725ZM360.059 158.825L359.278 158.2C349.297 170.677 334.004 177.625 314.909 177.625V178.625V179.625C334.514 179.625 350.422 172.472 360.84 159.45L360.059 158.825ZM457.002 176.525V177.525H458.002V176.525H457.002ZM428.502 176.525H427.502V177.525H428.502V176.525ZM398.952 176.525V177.525H399.952V176.525H398.952ZM370.452 176.525H369.452V177.525H370.452V176.525ZM370.452 65.2249V64.2249H369.452V65.2249H370.452ZM398.952 65.2249H399.952V64.2249H398.952V65.2249ZM398.952 102.725H397.952V105.018L399.632 103.458L398.952 102.725ZM423.402 93.8749V94.8749C432.74 94.8749 440.862 97.5567 446.646 103.215C452.424 108.867 456.002 117.618 456.002 130.025H457.002H458.002C458.002 117.232 454.304 107.908 448.045 101.785C441.791 95.6681 433.113 92.8749 423.402 92.8749V93.8749ZM457.002 130.025H456.002V176.525H457.002H458.002V130.025H457.002ZM457.002 176.525V175.525H428.502V176.525V177.525H457.002V176.525ZM428.502 176.525H429.502V134.675H428.502H427.502V176.525H428.502ZM428.502 134.675H429.502C429.502 128.701 428.202 124.265 425.681 121.313C423.134 118.332 419.482 117.025 415.152 117.025V118.025V119.025C419.071 119.025 422.094 120.193 424.16 122.612C426.251 125.06 427.502 128.949 427.502 134.675H428.502ZM415.152 118.025V117.025C410.367 117.025 406.026 118.52 402.889 121.88C399.759 125.232 397.952 130.308 397.952 137.225H398.952H399.952C399.952 130.642 401.669 126.117 404.351 123.245C407.027 120.38 410.786 119.025 415.152 119.025V118.025ZM398.952 137.225H397.952V176.525H398.952H399.952V137.225H398.952ZM398.952 176.525V175.525H370.452V176.525V177.525H398.952V176.525ZM370.452 176.525H371.452V65.2249H370.452H369.452V176.525H370.452ZM370.452 65.2249V66.2249H398.952V65.2249V64.2249H370.452V65.2249ZM398.952 65.2249H397.952V102.725H398.952H399.952V65.2249H398.952ZM398.952 102.725L399.632 103.458C405.717 97.8071 414.01 94.8749 423.402 94.8749V93.8749V92.8749C413.593 92.8749 404.786 95.9427 398.271 101.992L398.952 102.725ZM549.895 62.6749L550.524 63.4525L552.722 61.6749H549.895V62.6749ZM521.695 85.4749V86.4749H522.049L522.324 86.2525L521.695 85.4749ZM501.295 85.4749L500.545 84.8136L499.08 86.4749H501.295V85.4749ZM521.395 62.6749V61.6749H520.943L520.645 62.0136L521.395 62.6749ZM530.395 95.2249V94.2249H529.395V95.2249H530.395ZM558.895 95.2249H559.895V94.2249H558.895V95.2249ZM558.895 176.525V177.525H559.895V176.525H558.895ZM531.745 176.525H530.745V177.525H531.745V176.525ZM531.745 167.825H532.745V165.243L531.006 167.151L531.745 167.825ZM473.095 95.2249V94.2249H472.095V95.2249H473.095ZM501.595 95.2249H502.595V94.2249H501.595V95.2249ZM549.895 62.6749L549.266 61.8973L521.066 84.6973L521.695 85.4749L522.324 86.2525L550.524 63.4525L549.895 62.6749ZM521.695 85.4749V84.4749H501.295V85.4749V86.4749H521.695V85.4749ZM501.295 85.4749L502.045 86.1362L522.145 63.3362L521.395 62.6749L520.645 62.0136L500.545 84.8136L501.295 85.4749ZM521.395 62.6749V63.6749H549.895V62.6749V61.6749H521.395V62.6749ZM530.395 95.2249V96.2249H558.895V95.2249V94.2249H530.395V95.2249ZM558.895 95.2249H557.895V176.525H558.895H559.895V95.2249H558.895ZM558.895 176.525V175.525H531.745V176.525V177.525H558.895V176.525ZM531.745 176.525H532.745V167.825H531.745H530.745V176.525H531.745ZM531.745 167.825L531.006 167.151C525.074 173.662 516.659 176.875 507.595 176.875V177.875V178.875C517.131 178.875 526.116 175.488 532.484 168.498L531.745 167.825ZM507.595 177.875V176.875C497.805 176.875 489.462 174.08 483.567 168.24C477.676 162.402 474.095 153.388 474.095 140.675H473.095H472.095C472.095 153.761 475.789 163.348 482.16 169.66C488.527 175.969 497.434 178.875 507.595 178.875V177.875ZM473.095 140.675H474.095V95.2249H473.095H472.095V140.675H473.095ZM473.095 95.2249V96.2249H501.595V95.2249V94.2249H473.095V95.2249ZM501.595 95.2249H500.595V136.025H501.595H502.595V95.2249H501.595ZM501.595 136.025H500.595C500.595 142.426 501.847 147.088 504.365 150.159C506.918 153.272 510.622 154.575 515.095 154.575V153.575V152.575C511.018 152.575 507.972 151.403 505.912 148.891C503.818 146.337 502.595 142.223 502.595 136.025H501.595ZM515.095 153.575V154.575C519.521 154.575 523.639 153.106 526.639 149.761C529.629 146.428 531.395 141.359 531.395 134.375H530.395H529.395C529.395 141.041 527.711 145.572 525.15 148.426C522.601 151.268 519.069 152.575 515.095 152.575V153.575ZM530.395 134.375H531.395V95.2249H530.395H529.395V134.375H530.395ZM662.302 176.525V177.525H663.302V176.525H662.302ZM633.802 176.525H632.802V177.525H633.802V176.525ZM604.252 176.525V177.525H605.252V176.525H604.252ZM575.752 176.525H574.752V177.525H575.752V176.525ZM575.752 95.2249V94.2249H574.752V95.2249H575.752ZM602.902 95.2249H603.902V94.2249H602.902V95.2249ZM602.902 104.075H601.902V106.569L603.625 104.766L602.902 104.075ZM628.702 93.8749V94.8749C638.041 94.8749 646.163 97.5567 651.947 103.215C657.725 108.867 661.302 117.618 661.302 130.025H662.302H663.302C663.302 117.232 659.605 107.908 653.345 101.785C647.092 95.6681 638.413 92.8749 628.702 92.8749V93.8749ZM662.302 130.025H661.302V176.525H662.302H663.302V130.025H662.302ZM662.302 176.525V175.525H633.802V176.525V177.525H662.302V176.525ZM633.802 176.525H634.802V134.675H633.802H632.802V176.525H633.802ZM633.802 134.675H634.802C634.802 128.701 633.503 124.265 630.981 121.313C628.435 118.332 624.783 117.025 620.452 117.025V118.025V119.025C624.372 119.025 627.394 120.193 629.461 122.612C631.551 125.06 632.802 128.949 632.802 134.675H633.802ZM620.452 118.025V117.025C615.668 117.025 611.327 118.52 608.19 121.88C605.06 125.232 603.252 130.308 603.252 137.225H604.252H605.252C605.252 130.642 606.97 126.117 609.652 123.245C612.327 120.38 616.087 119.025 620.452 119.025V118.025ZM604.252 137.225H603.252V176.525H604.252H605.252V137.225H604.252ZM604.252 176.525V175.525H575.752V176.525V177.525H604.252V176.525ZM575.752 176.525H576.752V95.2249H575.752H574.752V176.525H575.752ZM575.752 95.2249V96.2249H602.902V95.2249V94.2249H575.752V95.2249ZM602.902 95.2249H601.902V104.075H602.902H603.902V95.2249H602.902ZM602.902 104.075L603.625 104.766C609.856 98.2452 618.728 94.8749 628.702 94.8749V93.8749V92.8749C618.277 92.8749 608.849 96.4046 602.179 103.384L602.902 104.075ZM740.168 95.2249V94.2249H739.168V95.2249H740.168ZM767.318 95.2249H768.318V94.2249H767.318V95.2249ZM679.268 196.325L678.38 195.864L677.98 196.636L678.687 197.139L679.268 196.325ZM689.618 176.375L690.242 175.594L689.291 174.833L688.73 175.914L689.618 176.375ZM738.818 162.725H739.818V160.03L738.06 162.073L738.818 162.725ZM740.168 105.125L739.358 105.712L741.168 108.206V105.125H740.168ZM740.168 95.2249V96.2249H767.318V95.2249V94.2249H740.168V95.2249ZM767.318 95.2249H766.318V161.675H767.318H768.318V95.2249H767.318ZM767.318 161.675H766.318C766.318 176.862 762.026 187.883 754.153 195.12C746.266 202.371 734.623 205.975 719.618 205.975V206.975V207.975C734.912 207.975 747.119 204.304 755.507 196.592C763.91 188.867 768.318 177.238 768.318 161.675H767.318ZM719.618 206.975V205.975C704.139 205.975 689.519 202.398 679.848 195.51L679.268 196.325L678.687 197.139C688.816 204.352 703.896 207.975 719.618 207.975V206.975ZM679.268 196.325L680.155 196.785L690.505 176.835L689.618 176.375L688.73 175.914L678.38 195.864L679.268 196.325ZM689.618 176.375L688.993 177.156C695.957 182.727 707.293 186.075 717.068 186.075V185.075V184.075C707.642 184.075 696.778 180.822 690.242 175.594L689.618 176.375ZM717.068 185.075V186.075C724.846 186.075 730.58 184.323 734.366 180.759C738.163 177.184 739.818 171.958 739.818 165.425H738.818H737.818C737.818 171.642 736.247 176.241 732.995 179.303C729.73 182.377 724.589 184.075 717.068 184.075V185.075ZM738.818 165.425H739.818V162.725H738.818H737.818V165.425H738.818ZM738.818 162.725L738.06 162.073C732.749 168.244 724.812 171.325 714.668 171.325V172.325V173.325C725.223 173.325 733.786 170.106 739.576 163.377L738.818 162.725ZM714.668 172.325V171.325C693.559 171.325 675.768 156.413 675.768 133.025H674.768H673.768C673.768 157.636 692.576 173.325 714.668 173.325V172.325ZM674.768 133.025H675.768C675.768 109.789 693.556 94.8749 714.668 94.8749V93.8749V92.8749C692.579 92.8749 673.768 108.561 673.768 133.025H674.768ZM714.668 93.8749V94.8749C725.695 94.8749 734.047 98.3919 739.358 105.712L740.168 105.125L740.977 104.538C735.188 96.5579 726.14 92.8749 714.668 92.8749V93.8749ZM740.168 105.125H741.168V95.2249H740.168H739.168V105.125H740.168ZM721.418 149.675V150.675C726.739 150.675 731.416 148.912 734.773 145.795C738.136 142.673 740.118 138.24 740.118 133.025H739.118H738.118C738.118 137.709 736.349 141.602 733.412 144.33C730.469 147.063 726.296 148.675 721.418 148.675V149.675ZM739.118 133.025H740.118C740.118 127.808 738.135 123.411 734.768 120.325C731.409 117.246 726.733 115.525 721.418 115.525V116.525V117.525C726.302 117.525 730.476 119.103 733.417 121.8C736.35 124.489 738.118 128.342 738.118 133.025H739.118ZM721.418 116.525V115.525C716.103 115.525 711.391 117.246 707.996 120.321C704.593 123.404 702.568 127.802 702.568 133.025H703.568H704.568C704.568 128.348 706.367 124.495 709.339 121.804C712.319 119.104 716.532 117.525 721.418 117.525V116.525ZM703.568 133.025H702.568C702.568 143.556 710.748 150.675 721.418 150.675V149.675V148.675C711.687 148.675 704.568 142.293 704.568 133.025H703.568ZM875.332 153.275L876.274 152.942L875.84 151.712L874.765 152.451L875.332 153.275ZM882.382 173.225L882.918 174.069L883.589 173.642L883.324 172.892L882.382 173.225ZM829.582 119.525H830.582V118.525H829.582V119.525ZM817.732 119.525H816.732V120.525H817.732V119.525ZM817.732 98.2249V97.2249H816.732V98.2249H817.732ZM829.582 98.2249V99.2249H830.582V98.2249H829.582ZM829.582 77.0749V76.0749H828.582V77.0749H829.582ZM858.082 77.0749H859.082V76.0749H858.082V77.0749ZM858.082 98.2249H857.082V99.2249H858.082V98.2249ZM876.682 98.2249H877.682V97.2249H876.682V98.2249ZM876.682 119.525V120.525H877.682V119.525H876.682ZM858.082 119.525V118.525H857.082V119.525H858.082ZM875.332 153.275L874.389 153.608L881.439 173.558L882.382 173.225L883.324 172.892L876.274 152.942L875.332 153.275ZM882.382 173.225L881.845 172.381C877.119 175.389 869.984 176.875 862.582 176.875V177.875V178.875C870.179 178.875 877.744 177.361 882.918 174.069L882.382 173.225ZM862.582 177.875V176.875C852.305 176.875 844.334 174.361 838.937 169.43C833.556 164.514 830.582 157.054 830.582 146.825H829.582H828.582C828.582 157.446 831.682 165.511 837.588 170.907C843.479 176.289 852.008 178.875 862.582 178.875V177.875ZM829.582 146.825H830.582V119.525H829.582H828.582V146.825H829.582ZM829.582 119.525V118.525H817.732V119.525V120.525H829.582V119.525ZM817.732 119.525H818.732V98.2249H817.732H816.732V119.525H817.732ZM817.732 98.2249V99.2249H829.582V98.2249V97.2249H817.732V98.2249ZM829.582 98.2249H830.582V77.0749H829.582H828.582V98.2249H829.582ZM829.582 77.0749V78.0749H858.082V77.0749V76.0749H829.582V77.0749ZM858.082 77.0749H857.082V98.2249H858.082H859.082V77.0749H858.082ZM858.082 98.2249V99.2249H876.682V98.2249V97.2249H858.082V98.2249ZM876.682 98.2249H875.682V119.525H876.682H877.682V98.2249H876.682ZM876.682 119.525V118.525H858.082V119.525V120.525H876.682V119.525ZM858.082 119.525H857.082V146.525H858.082H859.082V119.525H858.082ZM858.082 146.525H857.082C857.082 149.715 858.002 152.31 859.72 154.115C861.443 155.923 863.861 156.825 866.632 156.825V155.825V154.825C864.302 154.825 862.446 154.077 861.168 152.735C859.887 151.39 859.082 149.335 859.082 146.525H858.082ZM866.632 155.825V156.825C869.958 156.825 873.312 155.877 875.898 154.099L875.332 153.275L874.765 152.451C872.552 153.973 869.605 154.825 866.632 154.825V155.825ZM930.028 74.0749L930.69 73.3256L930.028 72.7404L929.365 73.3256L930.028 74.0749ZM917.128 85.4749V86.4749H917.506L917.79 86.2242L917.128 85.4749ZM898.228 85.4749L897.468 84.8249L896.057 86.4749H898.228V85.4749ZM917.728 62.6749V61.6749H917.267L916.968 62.0249L917.728 62.6749ZM942.328 62.6749L943.088 62.0249L942.788 61.6749H942.328V62.6749ZM961.828 85.4749V86.4749H963.999L962.588 84.8249L961.828 85.4749ZM942.928 85.4749L942.266 86.2242L942.549 86.4749H942.928V85.4749ZM930.028 74.0749L929.365 73.3256L916.466 84.7256L917.128 85.4749L917.79 86.2242L930.69 74.8242L930.028 74.0749ZM917.128 85.4749V84.4749H898.228V85.4749V86.4749H917.128V85.4749ZM898.228 85.4749L898.988 86.1249L918.488 63.3249L917.728 62.6749L916.968 62.0249L897.468 84.8249L898.228 85.4749ZM917.728 62.6749V63.6749H942.328V62.6749V61.6749H917.728V62.6749ZM942.328 62.6749L941.568 63.3249L961.068 86.1249L961.828 85.4749L962.588 84.8249L943.088 62.0249L942.328 62.6749ZM961.828 85.4749V84.4749H942.928V85.4749V86.4749H961.828V85.4749ZM942.928 85.4749L943.59 84.7256L930.69 73.3256L930.028 74.0749L929.365 74.8242L942.266 86.2242L942.928 85.4749ZM930.328 93.8749V94.8749C956.714 94.8749 975.228 111.912 975.228 135.725H976.228H977.228C977.228 110.638 957.642 92.8749 930.328 92.8749V93.8749ZM976.228 135.725H975.228C975.228 159.695 956.706 176.875 930.328 176.875V177.875V178.875C957.649 178.875 977.228 160.955 977.228 135.725H976.228ZM930.328 177.875V176.875C904.244 176.875 885.428 159.691 885.428 135.725H884.428H883.428C883.428 160.959 903.311 178.875 930.328 178.875V177.875ZM884.428 135.725H885.428C885.428 111.916 904.237 94.8749 930.328 94.8749V93.8749V92.8749C903.318 92.8749 883.428 110.634 883.428 135.725H884.428ZM930.328 155.225V156.225C935.453 156.225 940.005 154.366 943.27 150.821C946.529 147.281 948.428 142.146 948.428 135.725H947.428H946.428C946.428 141.753 944.651 146.369 941.798 149.466C938.95 152.559 934.953 154.225 930.328 154.225V155.225ZM947.428 135.725H948.428C948.428 129.375 946.527 124.313 943.264 120.829C939.997 117.341 935.446 115.525 930.328 115.525V116.525V117.525C934.959 117.525 938.958 119.158 941.804 122.196C944.653 125.237 946.428 129.775 946.428 135.725H947.428ZM930.328 116.525V115.525C925.281 115.525 920.733 117.343 917.45 120.827C914.169 124.308 912.228 129.37 912.228 135.725H913.228H914.228C914.228 129.78 916.037 125.242 918.905 122.198C921.772 119.156 925.774 117.525 930.328 117.525V116.525ZM913.228 135.725H912.228C912.228 142.152 914.167 147.286 917.444 150.823C920.725 154.364 925.274 156.225 930.328 156.225V155.225V154.225C925.781 154.225 921.781 152.561 918.911 149.464C916.039 146.364 914.228 141.748 914.228 135.725H913.228ZM987.93 176.525H986.93V177.525H987.93V176.525ZM987.93 95.2249V94.2249H986.93V95.2249H987.93ZM1016.43 95.2249H1017.43V94.2249H1016.43V95.2249ZM1016.43 176.525V177.525H1017.43V176.525H1016.43ZM1002.18 86.2249V85.2249C992.125 85.2249 985.78 78.9712 985.78 71.0749H984.78H983.78C983.78 80.2786 991.235 87.2249 1002.18 87.2249V86.2249ZM984.78 71.0749H985.78C985.78 63.1786 992.125 56.9249 1002.18 56.9249V55.9249V54.9249C991.235 54.9249 983.78 61.8712 983.78 71.0749H984.78ZM1002.18 55.9249V56.9249C1007.24 56.9249 1011.34 58.4051 1014.17 60.8276C1016.98 63.2409 1018.58 66.6371 1018.58 70.6249H1019.58H1020.58C1020.58 66.0627 1018.73 62.1089 1015.47 59.3097C1012.22 56.5197 1007.62 54.9249 1002.18 54.9249V55.9249ZM1019.58 70.6249H1018.58C1018.58 74.8571 1016.96 78.4847 1014.14 81.0616C1011.32 83.6434 1007.22 85.2249 1002.18 85.2249V86.2249V87.2249C1007.64 87.2249 1012.24 85.5064 1015.49 82.5382C1018.75 79.5651 1020.58 75.3927 1020.58 70.6249H1019.58ZM987.93 176.525H988.93V95.2249H987.93H986.93V176.525H987.93ZM987.93 95.2249V96.2249H1016.43V95.2249V94.2249H987.93V95.2249ZM1016.43 95.2249H1015.43V176.525H1016.43H1017.43V95.2249H1016.43ZM1016.43 176.525V175.525H987.93V176.525V177.525H1016.43V176.525ZM1075.6 176.525H1074.6V177.525H1075.6V176.525ZM1075.6 65.2249V64.2249H1074.6V65.2249H1075.6ZM1104.1 65.2249H1105.1V64.2249H1104.1V65.2249ZM1104.1 176.525V177.525H1105.1V176.525H1104.1ZM1075.6 176.525H1076.6V65.2249H1075.6H1074.6V176.525H1075.6ZM1075.6 65.2249V66.2249H1104.1V65.2249V64.2249H1075.6V65.2249ZM1104.1 65.2249H1103.1V176.525H1104.1H1105.1V65.2249H1104.1ZM1104.1 176.525V175.525H1075.6V176.525V177.525H1104.1V176.525ZM1173.63 85.4749V86.4749H1175.84L1174.38 84.8136L1173.63 85.4749ZM1153.23 85.4749L1152.6 86.2525L1152.87 86.4749H1153.23V85.4749ZM1125.03 62.6749V61.6749H1122.2L1124.4 63.4525L1125.03 62.6749ZM1153.53 62.6749L1154.28 62.0136L1153.98 61.6749H1153.53V62.6749ZM1197.33 176.525V177.525H1198.33V176.525H1197.33ZM1170.78 176.525H1169.78V177.525H1170.78V176.525ZM1170.78 166.025H1171.78L1169.89 165.564L1170.78 166.025ZM1168.83 128.525V129.525H1169.88L1169.82 128.47L1168.83 128.525ZM1129.53 122.675L1128.63 123.119L1129.18 124.22L1130.14 123.462L1129.53 122.675ZM1119.93 103.325L1119.37 102.491L1118.64 102.978L1119.03 103.769L1119.93 103.325ZM1168.83 150.425L1169.77 150.754L1169.83 150.594V150.425H1168.83ZM1168.83 143.375H1169.83V142.375H1168.83V143.375ZM1173.63 85.4749V84.4749H1153.23V85.4749V86.4749H1173.63V85.4749ZM1153.23 85.4749L1153.85 84.6973L1125.65 61.8973L1125.03 62.6749L1124.4 63.4525L1152.6 86.2525L1153.23 85.4749ZM1125.03 62.6749V63.6749H1153.53V62.6749V61.6749H1125.03V62.6749ZM1153.53 62.6749L1152.78 63.3362L1172.88 86.1362L1173.63 85.4749L1174.38 84.8136L1154.28 62.0136L1153.53 62.6749ZM1155.78 93.8749V94.8749C1168.85 94.8749 1178.96 97.7744 1185.79 103.705C1192.6 109.613 1196.33 118.674 1196.33 131.375H1197.33H1198.33C1198.33 118.275 1194.47 108.587 1187.11 102.195C1179.77 95.8254 1169.1 92.8749 1155.78 92.8749V93.8749ZM1197.33 131.375H1196.33V176.525H1197.33H1198.33V131.375H1197.33ZM1197.33 176.525V175.525H1170.78V176.525V177.525H1197.33V176.525ZM1170.78 176.525H1171.78V166.025H1170.78H1169.78V176.525H1170.78ZM1170.78 166.025L1169.89 165.564C1166.07 172.922 1158.4 176.875 1146.78 176.875V177.875V178.875C1158.86 178.875 1167.38 174.728 1171.66 166.486L1170.78 166.025ZM1146.78 177.875V176.875C1137.21 176.875 1129.89 174.191 1124.97 169.885C1120.07 165.588 1117.48 159.606 1117.48 152.825H1116.48H1115.48C1115.48 160.144 1118.29 166.687 1123.65 171.39C1129.01 176.084 1136.84 178.875 1146.78 178.875V177.875ZM1116.48 152.825H1117.48C1117.48 145.6 1120.09 139.85 1125.68 135.864C1131.33 131.837 1140.12 129.525 1152.63 129.525V128.525V127.525C1139.93 127.525 1130.65 129.863 1124.52 134.236C1118.33 138.65 1115.48 145.05 1115.48 152.825H1116.48ZM1152.63 128.525V129.525H1168.83V128.525V127.525H1152.63V128.525ZM1168.83 128.525L1169.82 128.47C1169.59 124.117 1167.99 120.595 1164.86 118.189C1161.77 115.809 1157.32 114.625 1151.58 114.625V115.625V116.625C1157.08 116.625 1161.03 117.766 1163.64 119.774C1166.21 121.755 1167.61 124.683 1167.83 128.579L1168.83 128.525ZM1151.58 115.625V114.625C1143.59 114.625 1134.66 117.379 1128.91 121.888L1129.53 122.675L1130.14 123.462C1135.49 119.271 1143.96 116.625 1151.58 116.625V115.625ZM1129.53 122.675L1130.42 122.23L1120.82 102.88L1119.93 103.325L1119.03 103.769L1128.63 123.119L1129.53 122.675ZM1119.93 103.325L1120.48 104.159C1129.57 98.1464 1143.16 94.8749 1155.78 94.8749V93.8749V92.8749C1142.89 92.8749 1128.88 96.2034 1119.37 102.491L1119.93 103.325ZM1154.73 159.875V160.875C1161.36 160.875 1167.35 157.684 1169.77 150.754L1168.83 150.425L1167.88 150.096C1165.8 156.065 1160.69 158.875 1154.73 158.875V159.875ZM1168.83 150.425H1169.83V143.375H1168.83H1167.83V150.425H1168.83ZM1168.83 143.375V142.375H1156.53V143.375V144.375H1168.83V143.375ZM1156.53 143.375V142.375C1151.86 142.375 1148.5 143.21 1146.28 144.837C1144 146.508 1143.08 148.904 1143.08 151.625H1144.08H1145.08C1145.08 149.396 1145.8 147.666 1147.46 146.45C1149.18 145.189 1152.04 144.375 1156.53 144.375V143.375ZM1144.08 151.625H1143.08C1143.08 154.319 1144.18 156.671 1146.24 158.329C1148.28 159.971 1151.19 160.875 1154.73 160.875V159.875V158.875C1151.51 158.875 1149.09 158.053 1147.5 156.771C1145.92 155.503 1145.08 153.731 1145.08 151.625H1144.08ZM129.565 254.525V253.525H128.565V254.525H129.565ZM159.265 254.525H160.265V253.525H159.265V254.525ZM159.265 359.525V360.525H160.265V359.525H159.265ZM129.565 359.525H128.565V360.525H129.565V359.525ZM129.565 318.575H130.565V317.575H129.565V318.575ZM89.065 318.575V317.575H88.065V318.575H89.065ZM89.065 359.525V360.525H90.065V359.525H89.065ZM59.365 359.525H58.365V360.525H59.365V359.525ZM59.365 254.525V253.525H58.365V254.525H59.365ZM89.065 254.525H90.065V253.525H89.065V254.525ZM89.065 293.975H88.065V294.975H89.065V293.975ZM129.565 293.975V294.975H130.565V293.975H129.565ZM129.565 254.525V255.525H159.265V254.525V253.525H129.565V254.525ZM159.265 254.525H158.265V359.525H159.265H160.265V254.525H159.265ZM159.265 359.525V358.525H129.565V359.525V360.525H159.265V359.525ZM129.565 359.525H130.565V318.575H129.565H128.565V359.525H129.565ZM129.565 318.575V317.575H89.065V318.575V319.575H129.565V318.575ZM89.065 318.575H88.065V359.525H89.065H90.065V318.575H89.065ZM89.065 359.525V358.525H59.365V359.525V360.525H89.065V359.525ZM59.365 359.525H60.365V254.525H59.365H58.365V359.525H59.365ZM59.365 254.525V255.525H89.065V254.525V253.525H59.365V254.525ZM89.065 254.525H88.065V293.975H89.065H90.065V254.525H89.065ZM89.065 293.975V294.975H129.565V293.975V292.975H89.065V293.975ZM129.565 293.975H130.565V254.525H129.565H128.565V293.975H129.565ZM218.165 360.875V359.875C192.081 359.875 173.265 342.691 173.265 318.725H172.265H171.265C171.265 343.959 191.148 361.875 218.165 361.875V360.875ZM172.265 318.725H173.265C173.265 294.916 192.074 277.875 218.165 277.875V276.875V275.875C191.155 275.875 171.265 293.634 171.265 318.725H172.265ZM218.165 276.875V277.875C244.551 277.875 263.065 294.912 263.065 318.725H264.065H265.065C265.065 293.638 245.478 275.875 218.165 275.875V276.875ZM264.065 318.725H263.065C263.065 342.695 244.543 359.875 218.165 359.875V360.875V361.875C245.486 361.875 265.065 343.955 265.065 318.725H264.065ZM218.165 338.225V339.225C223.29 339.225 227.842 337.366 231.106 333.821C234.366 330.281 236.265 325.146 236.265 318.725H235.265H234.265C234.265 324.754 232.488 329.369 229.635 332.466C226.787 335.559 222.789 337.225 218.165 337.225V338.225ZM235.265 318.725H236.265C236.265 312.375 234.364 307.313 231.101 303.829C227.834 300.341 223.283 298.525 218.165 298.525V299.525V300.525C222.796 300.525 226.795 302.158 229.641 305.196C232.49 308.237 234.265 312.775 234.265 318.725H235.265ZM218.165 299.525V298.525C213.118 298.525 208.57 300.343 205.287 303.827C202.006 307.308 200.065 312.37 200.065 318.725H201.065H202.065C202.065 312.78 203.874 308.242 206.742 305.198C209.609 302.156 213.611 300.525 218.165 300.525V299.525ZM201.065 318.725H200.065C200.065 325.152 202.003 330.286 205.281 333.823C208.562 337.364 213.111 339.225 218.165 339.225V338.225V337.225C213.618 337.225 209.617 335.561 206.748 332.464C203.876 329.364 202.065 324.748 202.065 318.725H201.065ZM326.509 268.475V269.475H328.724L327.259 267.814L326.509 268.475ZM306.109 268.475L305.48 269.253L305.755 269.475H306.109V268.475ZM277.909 245.675V244.675H275.082L277.28 246.453L277.909 245.675ZM306.409 245.675L307.159 245.014L306.861 244.675H306.409V245.675ZM350.209 359.525V360.525H351.209V359.525H350.209ZM323.659 359.525H322.659V360.525H323.659V359.525ZM323.659 349.025H324.659L322.772 348.564L323.659 349.025ZM321.709 311.525V312.525H322.765L322.708 311.47L321.709 311.525ZM282.409 305.675L281.513 306.119L282.059 307.22L283.026 306.462L282.409 305.675ZM272.809 286.325L272.258 285.491L271.521 285.978L271.913 286.769L272.809 286.325ZM321.709 333.425L322.653 333.754L322.709 333.594V333.425H321.709ZM321.709 326.375H322.709V325.375H321.709V326.375ZM326.509 268.475V267.475H306.109V268.475V269.475H326.509V268.475ZM306.109 268.475L306.738 267.697L278.538 244.897L277.909 245.675L277.28 246.453L305.48 269.253L306.109 268.475ZM277.909 245.675V246.675H306.409V245.675V244.675H277.909V245.675ZM306.409 245.675L305.659 246.336L325.759 269.136L326.509 268.475L327.259 267.814L307.159 245.014L306.409 245.675ZM308.659 276.875V277.875C321.732 277.875 331.844 280.774 338.679 286.705C345.487 292.613 349.209 301.674 349.209 314.375H350.209H351.209C351.209 301.275 347.356 291.587 339.99 285.195C332.649 278.825 321.986 275.875 308.659 275.875V276.875ZM350.209 314.375H349.209V359.525H350.209H351.209V314.375H350.209ZM350.209 359.525V358.525H323.659V359.525V360.525H350.209V359.525ZM323.659 359.525H324.659V349.025H323.659H322.659V359.525H323.659ZM323.659 349.025L322.772 348.564C318.951 355.922 311.279 359.875 299.659 359.875V360.875V361.875C311.739 361.875 320.267 357.728 324.547 349.486L323.659 349.025ZM299.659 360.875V359.875C290.093 359.875 282.771 357.191 277.856 352.885C272.949 348.588 270.359 342.606 270.359 335.825H269.359H268.359C268.359 343.144 271.169 349.687 276.538 354.39C281.897 359.084 289.725 361.875 299.659 361.875V360.875ZM269.359 335.825H270.359C270.359 328.6 272.977 322.85 278.565 318.864C284.21 314.837 293.005 312.525 305.509 312.525V311.525V310.525C292.814 310.525 283.533 312.863 277.403 317.236C271.216 321.65 268.359 328.05 268.359 335.825H269.359ZM305.509 311.525V312.525H321.709V311.525V310.525H305.509V311.525ZM321.709 311.525L322.708 311.47C322.47 307.117 320.87 303.595 317.744 301.189C314.652 298.809 310.202 297.625 304.459 297.625V298.625V299.625C309.966 299.625 313.916 300.766 316.524 302.774C319.098 304.755 320.498 307.683 320.711 311.579L321.709 311.525ZM304.459 298.625V297.625C296.473 297.625 287.545 300.379 281.792 304.888L282.409 305.675L283.026 306.462C288.373 302.271 296.846 299.625 304.459 299.625V298.625ZM282.409 305.675L283.305 305.23L273.705 285.88L272.809 286.325L271.913 286.769L281.513 306.119L282.409 305.675ZM272.809 286.325L273.361 287.159C282.453 281.146 296.045 277.875 308.659 277.875V276.875V275.875C295.774 275.875 281.765 279.203 272.258 285.491L272.809 286.325ZM307.609 342.875V343.875C314.245 343.875 320.236 340.684 322.653 333.754L321.709 333.425L320.765 333.096C318.682 339.065 313.573 341.875 307.609 341.875V342.875ZM321.709 333.425H322.709V326.375H321.709H320.709V333.425H321.709ZM321.709 326.375V325.375H309.409V326.375V327.375H321.709V326.375ZM309.409 326.375V325.375C304.745 325.375 301.38 326.21 299.162 327.837C296.883 329.508 295.959 331.904 295.959 334.625H296.959H297.959C297.959 332.396 298.686 330.666 300.344 329.45C302.063 328.189 304.923 327.375 309.409 327.375V326.375ZM296.959 334.625H295.959C295.959 337.319 297.065 339.671 299.126 341.329C301.168 342.971 304.073 343.875 307.609 343.875V342.875V341.875C304.395 341.875 301.975 341.053 300.38 339.771C298.804 338.503 297.959 336.731 297.959 334.625H296.959ZM453.249 359.525V360.525H454.249V359.525H453.249ZM424.749 359.525H423.749V360.525H424.749V359.525ZM395.199 359.525V360.525H396.199V359.525H395.199ZM366.699 359.525H365.699V360.525H366.699V359.525ZM366.699 278.225V277.225H365.699V278.225H366.699ZM393.849 278.225H394.849V277.225H393.849V278.225ZM393.849 287.075H392.849V289.569L394.572 287.766L393.849 287.075ZM419.649 276.875V277.875C428.988 277.875 437.109 280.557 442.893 286.215C448.671 291.867 452.249 300.618 452.249 313.025H453.249H454.249C454.249 300.232 450.551 290.908 444.292 284.785C438.038 278.668 429.36 275.875 419.649 275.875V276.875ZM453.249 313.025H452.249V359.525H453.249H454.249V313.025H453.249ZM453.249 359.525V358.525H424.749V359.525V360.525H453.249V359.525ZM424.749 359.525H425.749V317.675H424.749H423.749V359.525H424.749ZM424.749 317.675H425.749C425.749 311.701 424.449 307.265 421.928 304.313C419.381 301.332 415.729 300.025 411.399 300.025V301.025V302.025C415.318 302.025 418.341 303.193 420.407 305.612C422.498 308.06 423.749 311.949 423.749 317.675H424.749ZM411.399 301.025V300.025C406.614 300.025 402.274 301.52 399.136 304.88C396.006 308.232 394.199 313.308 394.199 320.225H395.199H396.199C396.199 313.642 397.916 309.117 400.598 306.245C403.274 303.38 407.033 302.025 411.399 302.025V301.025ZM395.199 320.225H394.199V359.525H395.199H396.199V320.225H395.199ZM395.199 359.525V358.525H366.699V359.525V360.525H395.199V359.525ZM366.699 359.525H367.699V278.225H366.699H365.699V359.525H366.699ZM366.699 278.225V279.225H393.849V278.225V277.225H366.699V278.225ZM393.849 278.225H392.849V287.075H393.849H394.849V278.225H393.849ZM393.849 287.075L394.572 287.766C400.802 281.245 409.674 277.875 419.649 277.875V276.875V275.875C409.223 275.875 399.795 279.405 393.126 286.384L393.849 287.075ZM531.114 278.225V277.225H530.114V278.225H531.114ZM558.264 278.225H559.264V277.225H558.264V278.225ZM470.214 379.325L469.326 378.864L468.926 379.636L469.634 380.139L470.214 379.325ZM480.564 359.375L481.189 358.594L480.237 357.833L479.676 358.914L480.564 359.375ZM529.764 345.725H530.764V343.03L529.006 345.073L529.764 345.725ZM531.114 288.125L530.304 288.712L532.114 291.206V288.125H531.114ZM531.114 278.225V279.225H558.264V278.225V277.225H531.114V278.225ZM558.264 278.225H557.264V344.675H558.264H559.264V278.225H558.264ZM558.264 344.675H557.264C557.264 359.862 552.972 370.883 545.1 378.12C537.212 385.371 525.569 388.975 510.564 388.975V389.975V390.975C525.858 390.975 538.065 387.304 546.453 379.592C554.856 371.867 559.264 360.238 559.264 344.675H558.264ZM510.564 389.975V388.975C495.085 388.975 480.466 385.398 470.794 378.51L470.214 379.325L469.634 380.139C479.762 387.352 494.842 390.975 510.564 390.975V389.975ZM470.214 379.325L471.101 379.785L481.451 359.835L480.564 359.375L479.676 358.914L469.326 378.864L470.214 379.325ZM480.564 359.375L479.939 360.156C486.904 365.727 498.24 369.075 508.014 369.075V368.075V367.075C498.588 367.075 487.724 363.822 481.189 358.594L480.564 359.375ZM508.014 368.075V369.075C515.793 369.075 521.526 367.323 525.312 363.759C529.11 360.184 530.764 354.958 530.764 348.425H529.764H528.764C528.764 354.642 527.193 359.241 523.941 362.303C520.676 365.377 515.535 367.075 508.014 367.075V368.075ZM529.764 348.425H530.764V345.725H529.764H528.764V348.425H529.764ZM529.764 345.725L529.006 345.073C523.695 351.244 515.758 354.325 505.614 354.325V355.325V356.325C516.169 356.325 524.732 353.106 530.522 346.377L529.764 345.725ZM505.614 355.325V354.325C484.505 354.325 466.714 339.413 466.714 316.025H465.714H464.714C464.714 340.636 483.523 356.325 505.614 356.325V355.325ZM465.714 316.025H466.714C466.714 292.789 484.502 277.875 505.614 277.875V276.875V275.875C483.525 275.875 464.714 291.561 464.714 316.025H465.714ZM505.614 276.875V277.875C516.642 277.875 524.994 281.392 530.304 288.712L531.114 288.125L531.923 287.538C526.134 279.558 517.086 275.875 505.614 275.875V276.875ZM531.114 288.125H532.114V278.225H531.114H530.114V288.125H531.114ZM512.364 332.675V333.675C517.685 333.675 522.363 331.912 525.719 328.795C529.082 325.673 531.064 321.24 531.064 316.025H530.064H529.064C529.064 320.709 527.296 324.602 524.358 327.33C521.415 330.063 517.243 331.675 512.364 331.675V332.675ZM530.064 316.025H531.064C531.064 310.808 529.081 306.411 525.715 303.325C522.356 300.246 517.679 298.525 512.364 298.525V299.525V300.525C517.249 300.525 521.422 302.103 524.363 304.8C527.297 307.489 529.064 311.342 529.064 316.025H530.064ZM512.364 299.525V298.525C507.049 298.525 502.337 300.246 498.942 303.321C495.539 306.404 493.514 310.802 493.514 316.025H494.514H495.514C495.514 311.348 497.314 307.495 500.285 304.804C503.265 302.104 507.478 300.525 512.364 300.525V299.525ZM494.514 316.025H493.514C493.514 326.556 501.694 333.675 512.364 333.675V332.675V331.675C502.633 331.675 495.514 325.293 495.514 316.025H494.514ZM740.678 359.525V360.525H741.681L741.678 359.522L740.678 359.525ZM713.378 359.525L712.378 359.53L712.383 360.525H713.378V359.525ZM713.078 303.875L714.078 303.87L714.059 300.276L712.219 303.363L713.078 303.875ZM686.078 349.175V350.175H686.646L686.937 349.687L686.078 349.175ZM672.878 349.175L672.025 349.698L672.318 350.175H672.878V349.175ZM646.028 305.375L646.88 304.852L645.028 301.83V305.375H646.028ZM646.028 359.525V360.525H647.028V359.525H646.028ZM618.578 359.525H617.578V360.525H618.578V359.525ZM618.578 254.525V253.525H617.578V254.525H618.578ZM643.028 254.525L643.882 254.005L643.59 253.525H643.028V254.525ZM679.928 315.125L679.074 315.645L679.938 317.065L680.788 315.636L679.928 315.125ZM715.928 254.525V253.525H715.359L715.068 254.014L715.928 254.525ZM740.378 254.525L741.378 254.522L741.375 253.525H740.378V254.525ZM740.678 359.525V358.525H713.378V359.525V360.525H740.678V359.525ZM713.378 359.525L714.378 359.52L714.078 303.87L713.078 303.875L712.078 303.88L712.378 359.53L713.378 359.525ZM713.078 303.875L712.219 303.363L685.219 348.663L686.078 349.175L686.937 349.687L713.937 304.387L713.078 303.875ZM686.078 349.175V348.175H672.878V349.175V350.175H686.078V349.175ZM672.878 349.175L673.73 348.652L646.88 304.852L646.028 305.375L645.175 305.898L672.025 349.698L672.878 349.175ZM646.028 305.375H645.028V359.525H646.028H647.028V305.375H646.028ZM646.028 359.525V358.525H618.578V359.525V360.525H646.028V359.525ZM618.578 359.525H619.578V254.525H618.578H617.578V359.525H618.578ZM618.578 254.525V255.525H643.028V254.525V253.525H618.578V254.525ZM643.028 254.525L642.174 255.045L679.074 315.645L679.928 315.125L680.782 314.605L643.882 254.005L643.028 254.525ZM679.928 315.125L680.788 315.636L716.788 255.036L715.928 254.525L715.068 254.014L679.068 314.614L679.928 315.125ZM715.928 254.525V255.525H740.378V254.525V253.525H715.928V254.525ZM740.378 254.525L739.378 254.528L739.678 359.528L740.678 359.525L741.678 359.522L741.378 254.522L740.378 254.525ZM835.043 359.525V360.525H836.043V359.525H835.043ZM808.493 359.525H807.493V360.525H808.493V359.525ZM808.493 349.025H809.493L807.606 348.564L808.493 349.025ZM806.543 311.525V312.525H807.599L807.542 311.47L806.543 311.525ZM767.243 305.675L766.347 306.119L766.893 307.22L767.86 306.462L767.243 305.675ZM757.643 286.325L757.092 285.491L756.355 285.978L756.747 286.769L757.643 286.325ZM806.543 333.425L807.487 333.754L807.543 333.594V333.425H806.543ZM806.543 326.375H807.543V325.375H806.543V326.375ZM793.493 276.875V277.875C806.566 277.875 816.678 280.774 823.513 286.705C830.321 292.613 834.043 301.674 834.043 314.375H835.043H836.043C836.043 301.275 832.19 291.587 824.823 285.195C817.483 278.825 806.82 275.875 793.493 275.875V276.875ZM835.043 314.375H834.043V359.525H835.043H836.043V314.375H835.043ZM835.043 359.525V358.525H808.493V359.525V360.525H835.043V359.525ZM808.493 359.525H809.493V349.025H808.493H807.493V359.525H808.493ZM808.493 349.025L807.606 348.564C803.785 355.922 796.113 359.875 784.493 359.875V360.875V361.875C796.573 361.875 805.101 357.728 809.381 349.486L808.493 349.025ZM784.493 360.875V359.875C774.927 359.875 767.605 357.191 762.69 352.885C757.783 348.588 755.193 342.606 755.193 335.825H754.193H753.193C753.193 343.144 756.003 349.687 761.372 354.39C766.731 359.084 774.559 361.875 784.493 361.875V360.875ZM754.193 335.825H755.193C755.193 328.6 757.811 322.85 763.399 318.864C769.044 314.837 777.839 312.525 790.343 312.525V311.525V310.525C777.648 310.525 768.367 312.863 762.237 317.236C756.05 321.65 753.193 328.05 753.193 335.825H754.193ZM790.343 311.525V312.525H806.543V311.525V310.525H790.343V311.525ZM806.543 311.525L807.542 311.47C807.304 307.117 805.704 303.595 802.578 301.189C799.486 298.809 795.036 297.625 789.293 297.625V298.625V299.625C794.8 299.625 798.75 300.766 801.358 302.774C803.932 304.755 805.332 307.683 805.545 311.579L806.543 311.525ZM789.293 298.625V297.625C781.307 297.625 772.379 300.379 766.626 304.888L767.243 305.675L767.86 306.462C773.207 302.271 781.68 299.625 789.293 299.625V298.625ZM767.243 305.675L768.139 305.23L758.539 285.88L757.643 286.325L756.747 286.769L766.347 306.119L767.243 305.675ZM757.643 286.325L758.195 287.159C767.287 281.146 780.879 277.875 793.493 277.875V276.875V275.875C780.608 275.875 766.599 279.203 757.092 285.491L757.643 286.325ZM792.443 342.875V343.875C799.079 343.875 805.07 340.684 807.487 333.754L806.543 333.425L805.599 333.096C803.516 339.065 798.407 341.875 792.443 341.875V342.875ZM806.543 333.425H807.543V326.375H806.543H805.543V333.425H806.543ZM806.543 326.375V325.375H794.243V326.375V327.375H806.543V326.375ZM794.243 326.375V325.375C789.579 325.375 786.214 326.21 783.995 327.837C781.717 329.508 780.793 331.904 780.793 334.625H781.793H782.793C782.793 332.396 783.52 330.666 785.178 329.45C786.897 328.189 789.757 327.375 794.243 327.375V326.375ZM781.793 334.625H780.793C780.793 337.319 781.899 339.671 783.96 341.329C786.002 342.971 788.907 343.875 792.443 343.875V342.875V341.875C789.229 341.875 786.809 341.053 785.214 339.771C783.638 338.503 782.793 336.731 782.793 334.625H781.793ZM851.533 359.525H850.533V360.525H851.533V359.525ZM851.533 278.225V277.225H850.533V278.225H851.533ZM880.033 278.225H881.033V277.225H880.033V278.225ZM880.033 359.525V360.525H881.033V359.525H880.033ZM865.783 269.225V268.225C855.728 268.225 849.383 261.971 849.383 254.075H848.383H847.383C847.383 263.279 854.837 270.225 865.783 270.225V269.225ZM848.383 254.075H849.383C849.383 246.179 855.728 239.925 865.783 239.925V238.925V237.925C854.837 237.925 847.383 244.871 847.383 254.075H848.383ZM865.783 238.925V239.925C870.841 239.925 874.946 241.405 877.769 243.828C880.582 246.241 882.183 249.637 882.183 253.625H883.183H884.183C884.183 249.063 882.334 245.109 879.071 242.31C875.82 239.52 871.224 237.925 865.783 237.925V238.925ZM883.183 253.625H882.183C882.183 257.857 880.566 261.485 877.746 264.062C874.92 266.643 870.822 268.225 865.783 268.225V269.225V270.225C871.243 270.225 875.846 268.506 879.095 265.538C882.349 262.565 884.183 258.393 884.183 253.625H883.183ZM851.533 359.525H852.533V278.225H851.533H850.533V359.525H851.533ZM851.533 278.225V279.225H880.033V278.225V277.225H851.533V278.225ZM880.033 278.225H879.033V359.525H880.033H881.033V278.225H880.033ZM880.033 359.525V358.525H851.533V359.525V360.525H880.033V359.525ZM1062.66 359.525V360.525H1063.66L1063.66 359.522L1062.66 359.525ZM1035.36 359.525L1034.36 359.53L1034.36 360.525H1035.36V359.525ZM1035.06 303.875L1036.06 303.87L1036.04 300.276L1034.2 303.363L1035.06 303.875ZM1008.06 349.175V350.175H1008.62L1008.92 349.687L1008.06 349.175ZM994.856 349.175L994.004 349.698L994.296 350.175H994.856V349.175ZM968.006 305.375L968.859 304.852L967.006 301.83V305.375H968.006ZM968.006 359.525V360.525H969.006V359.525H968.006ZM940.556 359.525H939.556V360.525H940.556V359.525ZM940.556 254.525V253.525H939.556V254.525H940.556ZM965.006 254.525L965.861 254.005L965.568 253.525H965.006V254.525ZM1001.91 315.125L1001.05 315.645L1001.92 317.065L1002.77 315.636L1001.91 315.125ZM1037.91 254.525V253.525H1037.34L1037.05 254.014L1037.91 254.525ZM1062.36 254.525L1063.36 254.522L1063.35 253.525H1062.36V254.525ZM1062.66 359.525V358.525H1035.36V359.525V360.525H1062.66V359.525ZM1035.36 359.525L1036.36 359.52L1036.06 303.87L1035.06 303.875L1034.06 303.88L1034.36 359.53L1035.36 359.525ZM1035.06 303.875L1034.2 303.363L1007.2 348.663L1008.06 349.175L1008.92 349.687L1035.92 304.387L1035.06 303.875ZM1008.06 349.175V348.175H994.856V349.175V350.175H1008.06V349.175ZM994.856 349.175L995.709 348.652L968.859 304.852L968.006 305.375L967.154 305.898L994.004 349.698L994.856 349.175ZM968.006 305.375H967.006V359.525H968.006H969.006V305.375H968.006ZM968.006 359.525V358.525H940.556V359.525V360.525H968.006V359.525ZM940.556 359.525H941.556V254.525H940.556H939.556V359.525H940.556ZM940.556 254.525V255.525H965.006V254.525V253.525H940.556V254.525ZM965.006 254.525L964.152 255.045L1001.05 315.645L1001.91 315.125L1002.76 314.605L965.861 254.005L965.006 254.525ZM1001.91 315.125L1002.77 315.636L1038.77 255.036L1037.91 254.525L1037.05 254.014L1001.05 314.614L1001.91 315.125ZM1037.91 254.525V255.525H1062.36V254.525V253.525H1037.91V254.525ZM1062.36 254.525L1061.36 254.528L1061.66 359.528L1062.66 359.525L1063.66 359.522L1063.36 254.522L1062.36 254.525ZM1163.47 326.075V327.075H1164.41L1164.47 326.141L1163.47 326.075ZM1104.37 326.075V325.075H1103.04L1103.41 326.354L1104.37 326.075ZM1143.07 332.075L1143.79 331.382L1143.14 330.698L1142.42 331.319L1143.07 332.075ZM1158.07 347.675L1158.82 348.342L1159.44 347.651L1158.79 346.982L1158.07 347.675ZM1103.92 311.075L1102.94 310.885L1102.71 312.075H1103.92V311.075ZM1137.22 311.075V312.075H1138.41L1138.21 310.902L1137.22 311.075ZM1163.92 319.025H1162.92C1162.92 321.083 1162.63 323.685 1162.47 326.008L1163.47 326.075L1164.47 326.141C1164.61 323.965 1164.92 321.167 1164.92 319.025H1163.92ZM1163.47 326.075V325.075H1104.37V326.075V327.075H1163.47V326.075ZM1104.37 326.075L1103.41 326.354C1104.67 330.694 1107.17 334.159 1110.76 336.528C1114.33 338.89 1118.92 340.125 1124.32 340.125V339.125V338.125C1119.22 338.125 1115.04 336.959 1111.86 334.859C1108.69 332.766 1106.47 329.706 1105.33 325.796L1104.37 326.075ZM1124.32 339.125V340.125C1132.53 340.125 1138.01 337.776 1143.73 332.831L1143.07 332.075L1142.42 331.319C1137.03 335.974 1132.01 338.125 1124.32 338.125V339.125ZM1143.07 332.075L1142.35 332.768L1157.35 348.368L1158.07 347.675L1158.79 346.982L1143.79 331.382L1143.07 332.075ZM1158.07 347.675L1157.33 347.007C1149.77 355.442 1138.67 359.875 1123.42 359.875V360.875V361.875C1139.07 361.875 1150.78 357.308 1158.82 348.342L1158.07 347.675ZM1123.42 360.875V359.875C1109.15 359.875 1097.48 355.478 1089.39 348.17C1081.3 340.868 1076.72 330.605 1076.72 318.725H1075.72H1074.72C1074.72 331.145 1079.52 341.957 1088.05 349.655C1096.56 357.347 1108.74 361.875 1123.42 361.875V360.875ZM1075.72 318.725H1076.72C1076.72 294.895 1095.25 277.875 1120.42 277.875V276.875V275.875C1094.29 275.875 1074.72 293.655 1074.72 318.725H1075.72ZM1120.42 276.875V277.875C1132.21 277.875 1142.83 281.632 1150.5 288.62C1158.15 295.597 1162.92 305.858 1162.92 319.025H1163.92H1164.92C1164.92 305.342 1159.94 294.528 1151.85 287.142C1143.76 279.768 1132.63 275.875 1120.42 275.875V276.875ZM1120.57 297.125V296.125C1115.94 296.125 1111.95 297.543 1108.9 300.131C1105.85 302.717 1103.8 306.42 1102.94 310.885L1103.92 311.075L1104.9 311.264C1105.69 307.18 1107.54 303.907 1110.19 301.656C1112.84 299.407 1116.36 298.125 1120.57 298.125V297.125ZM1103.92 311.075V312.075H1137.22V311.075V310.075H1103.92V311.075ZM1137.22 311.075L1138.21 310.902C1137.42 306.423 1135.37 302.716 1132.3 300.129C1129.23 297.542 1125.21 296.125 1120.57 296.125V297.125V298.125C1124.79 298.125 1128.34 299.408 1131.01 301.658C1133.68 303.909 1135.52 307.176 1136.24 311.248L1137.22 311.075ZM1233.46 248.225V247.225H1232.46V248.225H1233.46ZM1261.96 248.225H1262.96V247.225H1261.96V248.225ZM1261.96 359.525V360.525H1262.96V359.525H1261.96ZM1234.81 359.525H1233.81V360.525H1234.81V359.525ZM1234.81 351.425H1235.81V348.673L1234.05 350.783L1234.81 351.425ZM1233.46 285.275L1232.74 285.963L1234.46 287.784V285.275H1233.46ZM1233.46 248.225V249.225H1261.96V248.225V247.225H1233.46V248.225ZM1261.96 248.225H1260.96V359.525H1261.96H1262.96V248.225H1261.96ZM1261.96 359.525V358.525H1234.81V359.525V360.525H1261.96V359.525ZM1234.81 359.525H1235.81V351.425H1234.81H1233.81V359.525H1234.81ZM1234.81 351.425L1234.05 350.783C1228.89 356.939 1221.27 359.875 1210.96 359.875V360.875V361.875C1221.66 361.875 1229.93 358.811 1235.58 352.067L1234.81 351.425ZM1210.96 360.875V359.875C1200.11 359.875 1190.36 355.918 1183.32 348.827C1176.29 341.738 1171.91 331.463 1171.91 318.725H1170.91H1169.91C1169.91 331.937 1174.46 342.736 1181.9 350.236C1189.34 357.732 1199.61 361.875 1210.96 361.875V360.875ZM1170.91 318.725H1171.91C1171.91 306.064 1176.29 295.864 1183.32 288.832C1190.35 281.796 1200.11 277.875 1210.96 277.875V276.875V275.875C1199.62 275.875 1189.34 279.979 1181.9 287.418C1174.46 294.861 1169.91 305.586 1169.91 318.725H1170.91ZM1210.96 276.875V277.875C1220.22 277.875 1227.57 280.515 1232.74 285.963L1233.46 285.275L1234.19 284.587C1228.55 278.635 1220.6 275.875 1210.96 275.875V276.875ZM1233.46 285.275H1234.46V248.225H1233.46H1232.46V285.275H1233.46ZM1216.96 338.225V339.225C1222.02 339.225 1226.53 337.363 1229.77 333.819C1233.01 330.28 1234.91 325.146 1234.91 318.725H1233.91H1232.91C1232.91 324.754 1231.14 329.37 1228.3 332.469C1225.47 335.562 1221.51 337.225 1216.96 337.225V338.225ZM1233.91 318.725H1234.91C1234.91 312.375 1233.01 307.314 1229.77 303.831C1226.52 300.344 1222.01 298.525 1216.96 298.525V299.525V300.525C1221.51 300.525 1225.48 302.155 1228.3 305.194C1231.14 308.236 1232.91 312.775 1232.91 318.725H1233.91ZM1216.96 299.525V298.525C1211.84 298.525 1207.29 300.341 1204.03 303.829C1200.76 307.313 1198.86 312.375 1198.86 318.725H1199.86H1200.86C1200.86 312.775 1202.64 308.237 1205.49 305.196C1208.33 302.158 1212.33 300.525 1216.96 300.525V299.525ZM1199.86 318.725H1198.86C1198.86 325.146 1200.76 330.281 1204.02 333.821C1207.28 337.366 1211.84 339.225 1216.96 339.225V338.225V337.225C1212.34 337.225 1208.34 335.559 1205.49 332.466C1202.64 329.369 1200.86 324.754 1200.86 318.725H1199.86ZM1278.8 359.525H1277.8V360.525H1278.8V359.525ZM1278.8 278.225V277.225H1277.8V278.225H1278.8ZM1307.3 278.225H1308.3V277.225H1307.3V278.225ZM1307.3 359.525V360.525H1308.3V359.525H1307.3ZM1293.05 269.225V268.225C1282.99 268.225 1276.65 261.971 1276.65 254.075H1275.65H1274.65C1274.65 263.279 1282.1 270.225 1293.05 270.225V269.225ZM1275.65 254.075H1276.65C1276.65 246.179 1282.99 239.925 1293.05 239.925V238.925V237.925C1282.1 237.925 1274.65 244.871 1274.65 254.075H1275.65ZM1293.05 238.925V239.925C1298.11 239.925 1302.21 241.405 1305.03 243.828C1307.85 246.241 1309.45 249.637 1309.45 253.625H1310.45H1311.45C1311.45 249.063 1309.6 245.109 1306.34 242.31C1303.09 239.52 1298.49 237.925 1293.05 237.925V238.925ZM1310.45 253.625H1309.45C1309.45 257.857 1307.83 261.485 1305.01 264.062C1302.19 266.643 1298.09 268.225 1293.05 268.225V269.225V270.225C1298.51 270.225 1303.11 268.506 1306.36 265.538C1309.61 262.565 1311.45 258.393 1311.45 253.625H1310.45ZM1278.8 359.525H1279.8V278.225H1278.8H1277.8V359.525H1278.8ZM1278.8 278.225V279.225H1307.3V278.225V277.225H1278.8V278.225ZM1307.3 278.225H1306.3V359.525H1307.3H1308.3V278.225H1307.3ZM1307.3 359.525V358.525H1278.8V359.525V360.525H1307.3V359.525ZM1400.52 359.525V360.525H1401.52V359.525H1400.52ZM1373.97 359.525H1372.97V360.525H1373.97V359.525ZM1373.97 349.025H1374.97L1373.08 348.564L1373.97 349.025ZM1372.02 311.525V312.525H1373.08L1373.02 311.47L1372.02 311.525ZM1332.72 305.675L1331.82 306.119L1332.37 307.22L1333.34 306.462L1332.72 305.675ZM1323.12 286.325L1322.57 285.491L1321.83 285.978L1322.22 286.769L1323.12 286.325ZM1372.02 333.425L1372.96 333.754L1373.02 333.594V333.425H1372.02ZM1372.02 326.375H1373.02V325.375H1372.02V326.375ZM1358.97 276.875V277.875C1372.04 277.875 1382.15 280.774 1388.99 286.705C1395.8 292.613 1399.52 301.674 1399.52 314.375H1400.52H1401.52C1401.52 301.275 1397.67 291.587 1390.3 285.195C1382.96 278.825 1372.3 275.875 1358.97 275.875V276.875ZM1400.52 314.375H1399.52V359.525H1400.52H1401.52V314.375H1400.52ZM1400.52 359.525V358.525H1373.97V359.525V360.525H1400.52V359.525ZM1373.97 359.525H1374.97V349.025H1373.97H1372.97V359.525H1373.97ZM1373.97 349.025L1373.08 348.564C1369.26 355.922 1361.59 359.875 1349.97 359.875V360.875V361.875C1362.05 361.875 1370.58 357.728 1374.86 349.486L1373.97 349.025ZM1349.97 360.875V359.875C1340.4 359.875 1333.08 357.191 1328.17 352.885C1323.26 348.588 1320.67 342.606 1320.67 335.825H1319.67H1318.67C1318.67 343.144 1321.48 349.687 1326.85 354.39C1332.21 359.084 1340.04 361.875 1349.97 361.875V360.875ZM1319.67 335.825H1320.67C1320.67 328.6 1323.29 322.85 1328.88 318.864C1334.52 314.837 1343.32 312.525 1355.82 312.525V311.525V310.525C1343.12 310.525 1333.84 312.863 1327.71 317.236C1321.53 321.65 1318.67 328.05 1318.67 335.825H1319.67ZM1355.82 311.525V312.525H1372.02V311.525V310.525H1355.82V311.525ZM1372.02 311.525L1373.02 311.47C1372.78 307.117 1371.18 303.595 1368.05 301.189C1364.96 298.809 1360.51 297.625 1354.77 297.625V298.625V299.625C1360.28 299.625 1364.23 300.766 1366.83 302.774C1369.41 304.755 1370.81 307.683 1371.02 311.579L1372.02 311.525ZM1354.77 298.625V297.625C1346.78 297.625 1337.86 300.379 1332.1 304.888L1332.72 305.675L1333.34 306.462C1338.68 302.271 1347.16 299.625 1354.77 299.625V298.625ZM1332.72 305.675L1333.62 305.23L1324.02 285.88L1323.12 286.325L1322.22 286.769L1331.82 306.119L1332.72 305.675ZM1323.12 286.325L1323.67 287.159C1332.76 281.146 1346.36 277.875 1358.97 277.875V276.875V275.875C1346.08 275.875 1332.08 279.203 1322.57 285.491L1323.12 286.325ZM1357.92 342.875V343.875C1364.56 343.875 1370.55 340.684 1372.96 333.754L1372.02 333.425L1371.08 333.096C1368.99 339.065 1363.88 341.875 1357.92 341.875V342.875ZM1372.02 333.425H1373.02V326.375H1372.02H1371.02V333.425H1372.02ZM1372.02 326.375V325.375H1359.72V326.375V327.375H1372.02V326.375ZM1359.72 326.375V325.375C1355.06 325.375 1351.69 326.21 1349.47 327.837C1347.19 329.508 1346.27 331.904 1346.27 334.625H1347.27H1348.27C1348.27 332.396 1349 330.666 1350.65 329.45C1352.37 328.189 1355.23 327.375 1359.72 327.375V326.375ZM1347.27 334.625H1346.27C1346.27 337.319 1347.38 339.671 1349.44 341.329C1351.48 342.971 1354.38 343.875 1357.92 343.875V342.875V341.875C1354.71 341.875 1352.29 341.053 1350.69 339.771C1349.11 338.503 1348.27 336.731 1348.27 334.625H1347.27Z" fill="#79AAA6" mask="url(#path-1-outside-1_36_3235)"/>
<path d="M326.295 164.221C319.492 174.491 309.97 182.669 298.791 187.843C287.612 193.018 275.216 194.986 262.984 193.527C250.752 192.069 239.166 187.241 229.517 179.583C219.868 171.925 212.537 161.737 208.339 150.156C204.141 138.574 203.243 126.055 205.745 113.993C208.246 101.931 214.049 90.8013 222.506 81.8444C230.963 72.8875 241.741 66.4556 253.64 63.266C265.538 60.0765 278.088 60.2546 289.892 63.7805L270.858 127.497L326.295 164.221Z" fill="#CA2B38"/>
<path d="M308.185 170.1C274.885 170.1 250.435 147.45 250.435 115.5C250.435 83.55 274.885 60.9 308.185 60.9C327.535 60.9 343.135 67.95 353.335 80.7L334.435 97.8C327.835 89.85 319.735 85.5 309.685 85.5C292.435 85.5 280.435 97.5 280.435 115.5C280.435 133.5 292.435 145.5 309.685 145.5C319.735 145.5 327.835 141.15 334.435 133.2L353.335 150.3C343.135 163.05 327.535 170.1 308.185 170.1ZM416.677 85.35C435.727 85.35 450.277 96.3 450.277 121.5V168H421.777V126.15C421.777 114.45 416.677 109.5 408.427 109.5C399.277 109.5 392.227 115.2 392.227 128.7V168H363.727V56.7H392.227V94.2C398.527 88.35 407.077 85.35 416.677 85.35ZM543.17 54.15L514.97 76.95H494.57L514.67 54.15H543.17ZM523.67 86.7H552.17V168H525.02V159.3C518.87 166.05 510.17 169.35 500.87 169.35C480.92 169.35 466.37 157.95 466.37 132.15V86.7H494.87V127.5C494.87 140.1 499.82 145.05 508.37 145.05C516.77 145.05 523.67 139.5 523.67 125.85V86.7ZM621.978 85.35C641.028 85.35 655.578 96.3 655.578 121.5V168H627.078V126.15C627.078 114.45 621.978 109.5 613.728 109.5C604.578 109.5 597.528 115.2 597.528 128.7V168H569.028V86.7H596.178V95.55C602.628 88.8 611.778 85.35 621.978 85.35ZM733.443 86.7H760.593V153.15C760.593 183.9 743.193 198.45 712.893 198.45C697.293 198.45 682.443 194.85 672.543 187.8L682.893 167.85C689.643 173.25 700.743 176.55 710.343 176.55C725.643 176.55 732.093 169.65 732.093 156.9V154.2C726.543 160.65 718.293 163.8 707.943 163.8C686.343 163.8 668.043 148.5 668.043 124.5C668.043 100.65 686.343 85.35 707.943 85.35C719.193 85.35 727.893 88.95 733.443 96.6V86.7ZM714.693 141.15C724.893 141.15 732.393 134.4 732.393 124.5C732.393 114.6 724.893 108 714.693 108C704.493 108 696.843 114.6 696.843 124.5C696.843 134.4 704.493 141.15 714.693 141.15ZM868.607 144.75L875.657 164.7C870.707 167.85 863.357 169.35 855.857 169.35C835.007 169.35 822.857 159.15 822.857 138.3V111H811.007V89.7H822.857V68.55H851.357V89.7H869.957V111H851.357V138C851.357 144 854.807 147.3 859.907 147.3C863.057 147.3 866.207 146.4 868.607 144.75ZM923.303 65.55L910.403 76.95H891.503L911.003 54.15H935.603L955.103 76.95H936.203L923.303 65.55ZM923.603 85.35C950.453 85.35 969.503 102.75 969.503 127.2C969.503 151.8 950.453 169.35 923.603 169.35C897.053 169.35 877.703 151.8 877.703 127.2C877.703 102.75 897.053 85.35 923.603 85.35ZM923.603 146.7C933.353 146.7 940.703 139.65 940.703 127.2C940.703 114.9 933.353 108 923.603 108C914.003 108 906.503 114.9 906.503 127.2C906.503 139.65 914.003 146.7 923.603 146.7ZM995.455 77.7C984.955 77.7 978.055 71.1 978.055 62.55C978.055 54 984.955 47.4 995.455 47.4C1005.96 47.4 1012.86 53.55 1012.86 62.1C1012.86 71.1 1005.96 77.7 995.455 77.7ZM981.205 168V86.7H1009.71V168H981.205ZM1068.88 168V56.7H1097.38V168H1068.88ZM1166.9 76.95H1146.5L1118.3 54.15H1146.8L1166.9 76.95ZM1149.05 85.35C1175.45 85.35 1190.6 97.05 1190.6 122.85V168H1164.05V157.5C1160 165.3 1151.9 169.35 1140.05 169.35C1120.55 169.35 1109.75 158.4 1109.75 144.3C1109.75 129.3 1120.7 120 1145.9 120H1162.1C1161.65 111.75 1156.1 107.1 1144.85 107.1C1137.05 107.1 1128.35 109.8 1122.8 114.15L1113.2 94.8C1122.5 88.65 1136.3 85.35 1149.05 85.35ZM1148 151.35C1154.3 151.35 1159.85 148.35 1162.1 141.9V134.85H1149.8C1140.65 134.85 1137.35 138.15 1137.35 143.1C1137.35 147.9 1141.25 151.35 1148 151.35ZM122.84 246H152.54V351H122.84V310.05H82.3404V351H52.6404V246H82.3404V285.45H122.84V246ZM211.44 352.35C184.89 352.35 165.54 334.8 165.54 310.2C165.54 285.75 184.89 268.35 211.44 268.35C238.29 268.35 257.34 285.75 257.34 310.2C257.34 334.8 238.29 352.35 211.44 352.35ZM211.44 329.7C221.19 329.7 228.54 322.65 228.54 310.2C228.54 297.9 221.19 291 211.44 291C201.84 291 194.34 297.9 194.34 310.2C194.34 322.65 201.84 329.7 211.44 329.7ZM319.785 259.95H299.385L271.185 237.15H299.685L319.785 259.95ZM301.935 268.35C328.335 268.35 343.485 280.05 343.485 305.85V351H316.935V340.5C312.885 348.3 304.785 352.35 292.935 352.35C273.435 352.35 262.635 341.4 262.635 327.3C262.635 312.3 273.585 303 298.785 303H314.985C314.535 294.75 308.985 290.1 297.735 290.1C289.935 290.1 281.235 292.8 275.685 297.15L266.085 277.8C275.385 271.65 289.185 268.35 301.935 268.35ZM300.885 334.35C307.185 334.35 312.735 331.35 314.985 324.9V317.85H302.685C293.535 317.85 290.235 321.15 290.235 326.1C290.235 330.9 294.135 334.35 300.885 334.35ZM412.924 268.35C431.974 268.35 446.524 279.3 446.524 304.5V351H418.024V309.15C418.024 297.45 412.924 292.5 404.674 292.5C395.524 292.5 388.474 298.2 388.474 311.7V351H359.974V269.7H387.124V278.55C393.574 271.8 402.724 268.35 412.924 268.35ZM524.389 269.7H551.539V336.15C551.539 366.9 534.139 381.45 503.839 381.45C488.239 381.45 473.389 377.85 463.489 370.8L473.839 350.85C480.589 356.25 491.689 359.55 501.289 359.55C516.589 359.55 523.039 352.65 523.039 339.9V337.2C517.489 343.65 509.239 346.8 498.889 346.8C477.289 346.8 458.989 331.5 458.989 307.5C458.989 283.65 477.289 268.35 498.889 268.35C510.139 268.35 518.839 271.95 524.389 279.6V269.7ZM505.639 324.15C515.839 324.15 523.339 317.4 523.339 307.5C523.339 297.6 515.839 291 505.639 291C495.439 291 487.789 297.6 487.789 307.5C487.789 317.4 495.439 324.15 505.639 324.15ZM733.953 351H706.653L706.353 295.35L679.353 340.65H666.153L639.303 296.85V351H611.853V246H636.303L673.203 306.6L709.203 246H733.653L733.953 351ZM786.769 268.35C813.169 268.35 828.319 280.05 828.319 305.85V351H801.769V340.5C797.719 348.3 789.619 352.35 777.769 352.35C758.269 352.35 747.469 341.4 747.469 327.3C747.469 312.3 758.419 303 783.619 303H799.819C799.369 294.75 793.819 290.1 782.569 290.1C774.769 290.1 766.069 292.8 760.519 297.15L750.919 277.8C760.219 271.65 774.019 268.35 786.769 268.35ZM785.719 334.35C792.019 334.35 797.569 331.35 799.819 324.9V317.85H787.519C778.369 317.85 775.069 321.15 775.069 326.1C775.069 330.9 778.969 334.35 785.719 334.35ZM859.058 260.7C848.558 260.7 841.658 254.1 841.658 245.55C841.658 237 848.558 230.4 859.058 230.4C869.558 230.4 876.458 236.55 876.458 245.1C876.458 254.1 869.558 260.7 859.058 260.7ZM844.808 351V269.7H873.308V351H844.808ZM1055.93 351H1028.63L1028.33 295.35L1001.33 340.65H988.132L961.282 296.85V351H933.832V246H958.282L995.182 306.6L1031.18 246H1055.63L1055.93 351ZM1157.2 310.5C1157.2 312.6 1156.9 315.3 1156.75 317.55H1097.65C1100.05 325.8 1107.1 330.6 1117.6 330.6C1125.55 330.6 1130.8 328.35 1136.35 323.55L1151.35 339.15C1143.55 347.85 1132.15 352.35 1116.7 352.35C1087.75 352.35 1069 334.5 1069 310.2C1069 285.75 1088.05 268.35 1113.7 268.35C1137.7 268.35 1157.2 283.65 1157.2 310.5ZM1113.85 288.6C1105 288.6 1098.85 294 1097.2 302.55H1130.5C1129 294 1122.7 288.6 1113.85 288.6ZM1226.74 239.7H1255.24V351H1228.09V342.9C1222.69 349.35 1214.74 352.35 1204.24 352.35C1182.04 352.35 1164.19 336.15 1164.19 310.2C1164.19 284.4 1182.04 268.35 1204.24 268.35C1213.69 268.35 1221.34 271.05 1226.74 276.75V239.7ZM1210.24 329.7C1219.84 329.7 1227.19 322.65 1227.19 310.2C1227.19 297.9 1219.84 291 1210.24 291C1200.49 291 1193.14 297.9 1193.14 310.2C1193.14 322.65 1200.49 329.7 1210.24 329.7ZM1286.32 260.7C1275.82 260.7 1268.92 254.1 1268.92 245.55C1268.92 237 1275.82 230.4 1286.32 230.4C1296.82 230.4 1303.72 236.55 1303.72 245.1C1303.72 254.1 1296.82 260.7 1286.32 260.7ZM1272.07 351V269.7H1300.57V351H1272.07ZM1352.25 268.35C1378.65 268.35 1393.8 280.05 1393.8 305.85V351H1367.25V340.5C1363.2 348.3 1355.1 352.35 1343.25 352.35C1323.75 352.35 1312.95 341.4 1312.95 327.3C1312.95 312.3 1323.9 303 1349.1 303H1365.3C1364.85 294.75 1359.3 290.1 1348.05 290.1C1340.25 290.1 1331.55 292.8 1326 297.15L1316.4 277.8C1325.7 271.65 1339.5 268.35 1352.25 268.35ZM1351.2 334.35C1357.5 334.35 1363.05 331.35 1365.3 324.9V317.85H1353C1343.85 317.85 1340.55 321.15 1340.55 326.1C1340.55 330.9 1344.45 334.35 1351.2 334.35Z" fill="#37807A"/>
</svg>
