<svg width="143" height="142" viewBox="0 0 143 142" fill="none" xmlns="http://www.w3.org/2000/svg">
<g clip-path="url(#clip0_1_161)">
<path d="M17.476 0.00305176V4.16394H4.72513V8.60271H138.344V4.16394H21.6349V0.00305176H142.5V12.7599H138.063V37.7215H142.5V79.323H110.898V75.1621H138.344V71.0012H4.72513V75.1621H107.017V79.323H0.566196V37.7215H5.00289V12.7599H0.566196V0.00305176H17.476ZM17.476 12.7599H10.2691L17.476 19.9701V12.7599ZM26.0716 12.7599H21.6349V37.7215H25.7939V66.844L29.6639 66.6958L47.8403 53.8167L48.2439 53.1238L33.5118 25.1499C30.5379 21.304 24.468 18.5399 26.0716 12.7636V12.7599ZM31.5378 12.8155C30.2305 13.1045 29.6343 14.5273 30.1602 15.7388C30.3194 16.1094 34.0636 19.9627 34.5117 20.2628C35.5746 20.9779 37.8374 18.2509 37.6818 17.6655C37.5818 17.2839 33.0044 12.8266 32.5674 12.7525C32.223 12.6932 31.8712 12.7377 31.5341 12.8118L31.5378 12.8155ZM104.243 12.7599H39.1002C39.515 14.0345 41.0038 14.9422 41.9 15.9204L67.1165 33.7422C67.2573 34.398 65.3426 37.1843 64.7908 37.1287L41.6704 20.8445C41.3371 20.7149 41.0741 20.7964 40.7668 20.9409C40.3001 21.1595 37.6189 23.9569 37.7522 24.4793L51.7214 50.7674L52.551 50.4858C67.6646 38.8664 84.6263 28.8217 99.6177 17.1468C101.299 15.8389 102.917 14.4494 104.243 12.7599ZM110.546 12.8081C109.287 13.0711 106.543 16.7096 105.373 17.6507C105.288 18.1213 107.565 20.0183 108.024 20.5037C108.373 20.5667 112.943 15.9945 113.057 15.6129C113.565 13.9492 112.224 12.4561 110.546 12.8044V12.8081ZM121.431 12.7599H116.994C118.779 18.5585 112.546 21.6004 109.554 25.4241L94.8403 53.361L113.461 66.6291L117.272 66.8403V37.7178H121.431V12.7599ZM132.797 12.7599H125.59V19.9701L132.797 12.7599ZM9.16182 32.4528L16.3501 25.1425L9.16182 18.0323V32.4528ZM133.908 32.4528V18.0323L126.719 25.3426L133.908 32.4528ZM91.4665 50.7414L105.31 24.4793C105.784 23.6345 102.225 20.5222 101.94 20.5667L54.0583 55.0394L60.2097 66.7996L82.482 66.8477L83.1449 66.4031L89.2593 54.391C87.8631 53.3461 76.0714 45.8766 76.2566 45.1022C76.2973 44.9317 78.0749 42.29 78.2231 42.201C78.4194 42.0862 78.6119 42.1566 78.8119 42.2085L91.4628 50.7451L91.4665 50.7414ZM17.476 37.7215V30.5113L10.2691 37.7215H17.476ZM132.797 37.7215L125.59 30.5113V37.7215H132.797ZM21.6349 41.8824H4.72513V66.844H21.6349V41.8824ZM138.341 41.8824H121.431V66.844H138.341V41.8824ZM55.4545 66.844L50.329 57.1476L36.8819 66.844H55.4545ZM87.6112 66.844H106.462L92.7442 57.1328L87.6112 66.844ZM142.5 142.003H113.391V129.383C113.391 126.241 116.657 121.954 118.931 119.95C119.401 119.535 120.975 118.798 120.864 118.309C116.098 114.207 118.072 108.368 117.542 103.04C116.894 96.463 108.906 93.8842 103.958 97.7635C97.903 102.514 102.743 110.194 99.1918 116.015C98.8289 116.608 97.3475 118.164 97.3142 118.309C97.2142 118.764 99.9325 120.358 100.507 120.913C101.918 122.277 104.791 126.953 104.791 128.831V142.007H75.6825V130.221C75.6825 126.956 78.3971 122.484 80.8192 120.383C81.3006 119.968 83.7745 118.624 83.4412 118.16C76.5417 113.347 83.0116 103.262 77.0713 98.0451C73.4642 94.8772 68.0831 95.4108 65.1537 99.1641C61.5577 103.777 65.2945 110.902 61.4948 116.578C61.1763 117.053 59.9393 118.109 59.8912 118.309C59.8171 118.635 62.7613 120.58 63.3539 121.195C65.6537 123.57 67.6424 128.005 67.6424 131.329V142.007H38.2558V130.499C38.2558 127.112 40.8519 122.544 43.3925 120.383C43.9332 119.924 46.1034 118.746 46.0071 118.312C45.9701 118.149 44.2591 116.463 43.8554 115.745C40.9112 110.543 44.0221 104.225 41.0852 99.6568C37.6003 94.2399 29.2491 95.0254 26.5642 100.768C24.1384 105.959 27.1752 111.532 23.794 116.582C23.4755 117.056 22.2386 118.112 22.1904 118.312C22.1164 118.638 25.0606 120.584 25.6531 121.199C27.9863 123.607 29.9417 127.961 29.9417 131.332V142.01H0.566196V129.391C0.566196 128.872 1.36243 126.645 1.62537 126.012C2.9586 122.784 5.3436 120.302 8.32855 118.568C7.50269 117.279 6.43981 116.493 5.7806 115.022C2.15126 106.93 9.38773 98.3193 17.9759 100.602C19.2425 100.939 20.1943 101.58 21.3572 102.069V95.2737C21.3572 92.3281 18.2019 88.9453 15.4798 88.119C9.06183 86.1701 3.84742 91.9168 4.72513 98.1859H0.566196C-0.929983 80.8717 23.0385 77.9224 25.5198 95.1329C29.9232 91.3832 35.6153 90.8126 40.7593 93.4692C42.7333 84.0878 54.2546 80.227 61.4059 86.8222C63.3909 88.6525 64.3723 91.009 65.3056 93.4692C69.5275 91.1498 73.9419 91.3721 78.1823 93.4692C79.9674 85.066 89.4518 80.8087 96.9031 85.4179C99.9843 87.3224 101.536 90.1309 102.729 93.4655C107.547 90.7385 113.131 91.4499 117.409 94.855C119.742 80.2715 139.089 79.7046 142.5 94.0213V98.1822H138.341C139.529 90.3236 130.634 84.1656 124.342 89.8604C123.549 90.5792 121.709 93.4767 121.709 94.4363V102.062C122.99 101.617 123.92 100.872 125.305 100.528C136.059 97.8487 142.859 111.287 134.737 118.698C139.004 120.639 141.403 124.833 142.5 129.242V141.999V142.003ZM59.332 102.343C60.2023 98.5194 62.1466 97.519 60.7319 93.321C58.4135 86.4332 48.7883 85.7699 45.5553 92.3021C43.8554 95.7331 44.6479 96.7891 45.8849 99.8569C46.1478 100.513 46.1515 101.576 46.4404 102.073C46.7293 102.569 46.7848 102.18 46.9996 102.073C51.6178 99.8347 54.7916 99.3012 59.332 102.343ZM96.7587 102.343C96.6957 100.42 98.64 98.2748 98.7252 96.6631C99.2029 87.4891 86.4521 84.1656 82.7635 92.6356C81.4265 95.7035 82.0968 96.7668 83.1153 99.4975C83.3782 100.202 83.6041 101.609 83.8708 102.069C84.1559 102.562 84.2152 102.176 84.43 102.069C85.2929 101.65 86.0669 101.05 87.0002 100.754C90.4999 99.642 93.7589 100.309 96.7624 102.339L96.7587 102.343ZM15.1651 104.392C6.8583 104.529 6.9694 117.76 16.2279 116.764C23.457 115.985 22.9681 104.262 15.1651 104.392ZM52.6177 104.359C45.4516 104.666 44.7442 115.552 51.5029 116.701C61.254 118.357 61.4614 103.981 52.6177 104.359ZM85.7706 106.326C80.1933 112.01 89.0778 120.913 94.8329 114.974C100.514 109.109 91.6183 100.365 85.7706 106.326ZM127.741 104.359C120.061 104.644 119.964 115.819 126.586 116.741C136.456 118.116 136.296 104.04 127.741 104.359ZM25.5161 137.842V129.383C25.5161 127.497 22.957 124.292 21.4905 123.151C14.928 118.046 4.72513 122.977 4.72513 131.325V137.842H25.5161ZM63.2169 137.842V129.383C63.2169 127.564 60.6282 124.266 59.1912 123.151C52.6288 118.046 42.4259 122.977 42.4259 131.325V137.842H63.2169ZM100.64 137.842V129.383C100.64 127.742 97.9512 124.192 96.6142 123.151C90.3258 118.249 79.8489 122.821 79.8489 130.773V137.846H100.64V137.842ZM138.341 137.842V130.217C138.341 123.959 130.582 119.972 124.912 121.495C121.742 122.347 117.55 126.578 117.55 129.939V137.842H138.341ZM11.1024 54.3614V62.6831H15.5391V54.3614H11.1024ZM11.1024 46.0433V50.2042H15.5391V46.0433H11.1024ZM127.53 54.3614V62.6831H131.967V54.3614H127.53ZM127.53 46.0433V50.2042H131.967V46.0433H127.53Z" fill="#FCFCFD"/>
</g>
<defs>
<clipPath id="clip0_1_161">
<rect width="142" height="142" fill="white" transform="translate(0.5 0.00305176)"/>
</clipPath>
</defs>
</svg>
