<svg width="150" height="142" viewBox="0 0 150 142" fill="none" xmlns="http://www.w3.org/2000/svg">
<g clip-path="url(#clip0_1_209)">
<path d="M130.013 88.4229C127.379 88.5228 124.944 89.6511 123.16 91.5993L107.813 108.28C105.987 105.13 102.599 103.013 98.7258 103.013H81.228C79.3782 103.013 77.8377 102.505 76.3753 101.416L70.7749 97.2531C68.6789 95.6589 66.3757 94.8875 63.7272 94.8875H44.3226C42.2175 94.8875 40.4819 95.3231 38.8963 96.2428L35.1397 98.3361C34.7614 94.3097 31.3861 91.1485 27.2932 91.1485H11.6662C10.6512 91.1485 9.83144 91.9744 9.83144 92.9969V139.495C9.83144 140.518 10.6512 141.344 11.6662 141.344H27.2932C31.6384 141.344 35.1758 137.783 35.1758 133.403C38.6411 135.018 42.6139 137.214 45.0072 139.199C47.2143 141.08 49.6857 141.994 52.5655 141.994H98.4015C101.774 141.994 104.777 140.675 107.092 138.176L137.592 105.055C139.37 103.113 140.295 100.587 140.199 97.9428C140.1 95.2898 138.985 92.8426 137.064 91.0578C135.145 89.2518 132.637 88.3352 130.01 88.4139L130.013 88.4229ZM27.2932 137.65H13.501V94.8482H27.2932C29.6144 94.8482 31.5062 96.751 31.5062 99.0924V130.595V133.403C31.5062 135.744 29.6174 137.647 27.2932 137.647V137.65ZM134.899 102.55L104.404 135.662C102.786 137.414 100.765 138.303 98.4045 138.303H52.5685C50.5655 138.303 48.917 137.692 47.3645 136.367C44.3165 133.838 39.2567 131.134 35.1788 129.355V102.541L40.7041 99.4614C41.7671 98.8473 42.8511 98.5842 44.3256 98.5842H63.7302C65.574 98.5842 67.1114 99.1014 68.5828 100.218L74.1982 104.389C76.2912 105.953 78.5945 106.71 81.231 106.71H98.7288C101.945 106.71 104.653 108.96 105.377 111.979C105.389 112.052 105.407 112.124 105.425 112.194C105.518 112.651 105.569 113.12 105.569 113.604C105.569 117.403 102.5 120.495 98.7258 120.495H76.3663C75.3513 120.495 74.5285 121.321 74.5285 122.343C74.5285 123.366 75.3513 124.191 76.3663 124.191H98.7258C104.524 124.191 109.239 119.442 109.239 113.601C109.239 113.147 109.212 112.699 109.155 112.261L125.854 94.107C126.974 92.8879 128.496 92.1801 130.148 92.1166C131.779 92.0591 133.355 92.6399 134.565 93.7773C135.769 94.8966 136.463 96.4273 136.526 98.085C136.586 99.7488 136.007 101.334 134.896 102.55H134.899ZM102.723 52.231C99.3083 52.231 96.5307 55.0473 96.5307 58.505C96.5307 61.9626 99.3083 64.7427 102.723 64.7427C106.137 64.7427 108.918 61.9445 108.918 58.505C108.918 55.0654 106.14 52.231 102.723 52.231ZM102.723 61.046C101.332 61.046 100.203 59.9056 100.203 58.508C100.203 57.1104 101.332 55.9306 102.723 55.9306C104.113 55.9306 105.245 57.0862 105.245 58.508C105.245 59.9298 104.116 61.046 102.723 61.046ZM142.799 41.3135H120.404V32.7192C120.404 29.7607 118.806 27.1773 116.443 25.7767V19.7689C116.443 15.3281 112.857 11.7161 108.449 11.7161H61.0696L58.7634 9.39288C58.4181 9.045 57.9496 8.85139 57.4662 8.85139H50.7667V6.38596C50.7667 2.8678 47.926 0.00305415 44.4307 0.00305415H6.33608C2.84373 2.90778e-05 0 2.86477 0 6.38293V32.0265C0 35.5658 2.84373 38.4457 6.33608 38.4457H29.5964V71.9968C29.5964 76.4376 33.1969 80.0465 37.6261 80.0465H90.1676C90.5639 83.6736 93.6179 86.502 97.3204 86.502H100.095V91.5085C100.095 92.2829 100.57 92.9757 101.29 93.2419C101.497 93.3205 101.717 93.3568 101.93 93.3568C102.452 93.3568 102.966 93.133 103.32 92.7155L108.641 86.502H142.796C146.766 86.502 149.997 83.247 149.997 79.2479V48.6009C149.997 44.5805 146.766 41.3104 142.796 41.3104L142.799 41.3135ZM146.327 48.6039V68.5059L126.86 55.4406C126.244 55.0291 125.445 55.0261 124.827 55.4375L93.7951 76.1351V48.6039C93.7951 46.6225 95.3776 45.0131 97.3204 45.0131H142.799C144.745 45.0131 146.327 46.6225 146.327 48.6039ZM108.449 15.4158C110.83 15.4158 112.77 17.367 112.77 19.7689V24.6846C112.65 24.6786 112.533 24.6665 112.41 24.6665H73.922L64.7422 15.4188H108.449V15.4158ZM3.67253 32.0265V6.38293C3.67253 4.92787 4.8947 3.69969 6.33909 3.69969H44.4337C45.9021 3.69969 47.0972 4.90367 47.0972 6.38293V32.0265C47.0972 33.5269 45.9021 34.746 44.4337 34.746H40.581C39.566 34.746 38.7462 35.5749 38.7462 36.5974V37.3688L37.0376 35.3843C36.6892 34.979 36.1817 34.746 35.6502 34.746H6.33608C4.8917 34.746 3.66952 33.4997 3.66952 32.0265H3.67253ZM33.2689 71.9998V38.4487H34.8064L39.1906 43.5429C39.545 43.9543 40.0555 44.1782 40.578 44.1782C40.7942 44.1782 41.0104 44.1419 41.2206 44.0633C41.9383 43.794 42.4157 43.1013 42.4157 42.3299V38.4487H44.4307C47.926 38.4487 50.7667 35.5688 50.7667 32.0295V12.548H56.7034L59.0097 14.8713L71.865 27.8216C72.2103 28.1665 72.6758 28.3631 73.1652 28.3631H112.41C114.791 28.3631 116.731 30.3173 116.731 32.7192V41.3135H97.3234C93.3536 41.3135 90.1225 44.5836 90.1225 48.6039V76.3499H37.6261C35.2238 76.3499 33.2689 74.3957 33.2689 71.9968V71.9998ZM142.799 82.8084H107.8C107.266 82.8084 106.758 83.0413 106.407 83.4497L103.765 86.5353V84.6567C103.765 83.6342 102.942 82.8084 101.93 82.8084H97.3204C95.789 82.8084 94.4917 81.8101 94.0052 80.4307L94.9452 79.8045C95.0232 79.7591 95.0953 79.7137 95.1614 79.6593L125.833 59.2037L146.321 72.9527V79.2539C146.321 81.2142 144.739 82.8084 142.793 82.8084H142.799ZM36.2208 19.2274C36.2208 18.5679 35.8724 17.9538 35.3049 17.6241L32.5272 16.0057C32.4041 15.9119 32.269 15.8302 32.1218 15.7697L17.2966 7.13618C16.7261 6.80644 16.0294 6.80947 15.4618 7.13618C14.8943 7.46591 14.543 8.07698 14.543 8.73644V29.6669C14.543 30.3264 14.8943 30.9375 15.4618 31.2672C15.7471 31.4336 16.0624 31.5152 16.3807 31.5152C16.699 31.5152 17.0113 31.4305 17.2996 31.2672L35.3019 20.8216C35.8694 20.4919 36.2208 19.8838 36.2208 19.2213V19.2274ZM18.2185 11.943L29.5964 18.5679V19.8687L18.2185 26.4694V11.943Z" fill="#FCFCFD"/>
</g>
<defs>
<clipPath id="clip0_1_209">
<rect width="150" height="142" fill="white"/>
</clipPath>
</defs>
</svg>
