<svg width="142" height="142" viewBox="0 0 142 142" fill="none" xmlns="http://www.w3.org/2000/svg">
<g clip-path="url(#clip0_1_157)">
<path d="M5.69256 6.88195L66.8768 6.80162C70.2755 7.01584 73.0282 9.88491 73.3149 13.2436V69.1064C73.0396 72.4881 70.2526 75.273 66.8768 75.5484H6.46864C3.08906 75.273 0.305867 72.4843 0.0306066 69.1064L0.0420758 12.9682C0.454966 9.94995 2.74116 7.54757 5.69256 6.88195ZM6.25455 11.4533C5.17263 11.7632 4.55329 12.689 4.60681 13.8136L4.74827 69.5387L6.03664 70.8279H67.3089L68.5972 69.5387V12.8114L67.3089 11.5222L6.25838 11.4533H6.25455ZM84.0921 0L140.765 0.153017C141.606 0.592942 142.038 1.39628 141.996 2.35647L141.767 76.6043C141.327 77.4458 140.524 77.8781 139.565 77.836L83.6754 77.6065C82.8343 77.1666 82.4023 76.3633 82.4444 75.4031V2.36029C82.3908 1.23561 83.0102 0.30986 84.0921 0ZM137.405 4.52166H87.0397V73.2455H137.405V4.52166ZM74.37 84.7677L135.554 84.6874C138.949 84.9016 141.702 87.7592 141.992 91.1294V135.539C141.717 138.913 138.938 141.705 135.554 141.981H75.1461C71.8468 141.713 69.1669 139.077 68.7157 135.814V90.854C69.1286 87.8357 71.4148 85.4333 74.3662 84.7677H74.37ZM74.9359 89.3391C73.8539 89.649 73.2346 90.5747 73.2881 91.6994L73.5175 136.166C73.9572 137.008 74.76 137.44 75.7196 137.398L136.185 137.168C137.026 136.729 137.458 135.925 137.416 134.965L137.187 90.4982C136.747 89.6566 135.944 89.2243 134.985 89.2664L74.9359 89.3429V89.3391ZM28.8871 82.4916C41.9696 81.5238 58.9746 87.675 63.1455 101.301C68.6507 119.296 50.7626 131.733 34.809 132.8C30.034 133.117 25.5037 132.295 20.8548 131.419L10.7734 141.396C9.16773 142.635 7.14533 141.897 6.90447 139.827C6.30807 134.697 7.41294 128.519 6.85095 123.271C-10.2152 104.293 7.42058 84.0791 28.8871 82.4916ZM11.4883 133.951C13.4954 132.75 18.0372 126.526 19.9985 126.274C20.7631 126.174 25.3775 127.701 26.8341 127.903C37.986 129.456 53.6529 125.291 58.275 113.902C64.5601 98.4207 47.6889 87.7171 34.2547 86.9788C14.0765 85.8694 -6.46478 103.168 11.4921 121.496V133.951H11.4883ZM25.7904 37.3018L9.64178 53.4987C8.0858 55.9699 10.7811 58.3761 13.0634 56.6355L27.4114 42.3399L42.6654 57.0831L43.9423 57.2055C47.2416 55.2813 49.6234 51.6969 52.5901 49.2142C53.477 49.0573 59.613 56.9721 61.4481 57.2055C63.5202 57.4694 64.9615 55.2698 63.6999 53.4987L53.7676 43.6826C52.8194 43.2924 52.1351 43.3651 51.2788 43.9083C49.9789 44.7308 44.1373 51.5859 43.4338 51.4635L28.1645 36.6515C27.7287 36.5405 27.2967 36.5558 26.8609 36.6515C26.425 36.7471 26.0962 37.0149 25.7904 37.3056V37.3018ZM44.3284 18.3391C56.9484 16.5335 58.7528 35.4885 46.7943 36.552C34.8358 37.6155 33.1536 19.9381 44.3284 18.3391ZM44.8942 22.9143C39.3814 23.8057 40.3219 32.9829 46.7599 31.9385C52.2728 31.0472 51.3323 21.87 44.8942 22.9143ZM96.0468 36.5979H128.398C131.295 36.311 131.292 32.2905 128.398 32.0036L95.5422 32.0724C93.0725 32.8987 93.4318 36.376 96.0468 36.5979ZM96.0468 57.2131H128.398C131.295 56.9262 131.292 52.9057 128.398 52.6188L95.5422 52.6877C93.0725 53.514 93.4318 56.9913 96.0468 57.2131ZM95.783 15.9559C103.184 15.3553 112.008 16.8166 119.238 15.9788C122.143 15.6422 122.036 11.8053 119.501 11.4074L95.5422 11.4533C93.2177 12.1343 93.3707 15.581 95.783 15.9559ZM111.809 27.413C116.947 26.889 123.726 28.182 128.661 27.413C131.188 27.019 131.196 23.2624 128.661 22.8646L111.568 22.9105C109.244 23.5914 109.397 27.0381 111.809 27.413ZM95.783 48.0283C100.921 47.5042 107.7 48.7972 112.635 48.0283C115.162 47.6343 115.17 43.8777 112.635 43.4798L95.5422 43.5258C93.2177 44.2067 93.3707 47.6534 95.783 48.0283ZM95.783 66.3559C97.7366 66.662 106.101 66.662 108.055 66.3559C110.582 65.9619 110.59 62.2053 108.055 61.8075C104.404 61.2337 99.3461 62.1479 95.5422 61.8534C93.2177 62.5343 93.3707 65.981 95.783 66.3559ZM95.3204 27.2983C96.1653 27.5622 100.218 27.5622 101.185 27.4092C103.559 27.0381 103.693 23.6144 101.648 22.9717C100.822 22.7116 96.4291 22.7078 95.5422 22.9029C93.4357 23.3734 93.3363 26.6709 95.3242 27.2944L95.3204 27.2983ZM122.793 47.9173C123.638 48.1813 127.69 48.1813 128.658 48.0283C131.032 47.6572 131.165 44.2335 129.12 43.5908C128.294 43.3307 123.902 43.3268 123.015 43.5219C120.908 43.9925 120.809 47.29 122.797 47.9135L122.793 47.9173ZM97.836 93.9296C98.7994 93.7651 99.4723 93.8034 100.409 94.0826C102.99 94.8554 113.254 101.106 115.919 102.904C119.406 105.257 120.377 108 117.357 111.454C112.44 114.113 107.642 117.429 102.684 119.969C101.785 120.432 100.459 121.259 99.4914 121.362C96.7579 121.649 94.2003 119.656 93.9059 116.917C93.2751 111.029 94.357 104.048 93.9327 98.042C94.185 96.1866 96.0162 94.2433 97.8398 93.9335L97.836 93.9296ZM98.4859 116.767L114.512 107.464L98.4859 98.4398V116.767ZM122.957 124.204C121.359 122.743 119.211 124.024 118.913 125.948H82.0468C79.3821 126.365 79.5771 130.371 82.3105 130.52L118.916 130.497C119.188 130.57 119.153 132.926 121.516 132.827C123.665 132.735 123.366 130.837 123.699 130.547C124.464 129.881 129.839 131.817 130.481 128.875C131.487 124.261 124.51 126.603 123.699 125.903C123.619 125.83 123.592 124.786 122.961 124.208L122.957 124.204ZM16.4621 111.029C20.8969 110.609 20.2011 103.455 15.4261 104.232C11.3086 104.901 12.0083 111.45 16.4621 111.029ZM32.4846 111.029C36.9193 110.609 36.2235 103.455 31.4485 104.232C27.3311 104.901 28.0307 111.45 32.4846 111.029ZM48.5109 111.029C52.9456 110.609 52.2498 103.455 47.4748 104.232C43.3574 104.901 44.057 111.45 48.5109 111.029Z" fill="#FCFCFD"/>
</g>
<defs>
<clipPath id="clip0_1_157">
<rect width="142" height="142" fill="white"/>
</clipPath>
</defs>
</svg>
