<svg width="13" height="16" viewBox="0 0 13 16" fill="none" xmlns="http://www.w3.org/2000/svg">
<g clip-path="url(#clip0_1_79)">
<path d="M5.94632 0.0175924C8.97575 -0.200822 11.7869 1.54873 12.7052 4.43715C13.8778 8.13014 11.3817 13.1091 8.32755 15.2643C6.68455 16.4232 5.73701 16.1424 4.25155 14.9367C1.44268 12.6634 -0.839517 8.02316 0.299333 4.43715C1.07357 1.99893 3.36478 0.204805 5.94632 0.0175924ZM6.0296 1.68691C3.15771 1.92761 1.52821 4.35246 1.69701 7.07819C1.84556 9.44955 3.95896 13.1537 6.14888 14.2235C6.49549 14.3929 6.5405 14.3817 6.88036 14.2101C9.06578 13.1069 11.1499 9.46515 11.3007 7.07596C11.501 3.93123 9.31336 1.41277 6.02735 1.68691H6.0296Z" fill="#37807A"/>
<path d="M6.19864 3.31422C10.4907 2.92642 10.9544 9.35628 6.77482 9.68168C2.59528 10.0071 2.02811 3.68864 6.19864 3.31422ZM6.28192 4.97907C4.34632 5.2376 4.67042 8.23301 6.68704 8.00791C8.70366 7.78281 8.32104 4.70717 6.28192 4.97907Z" fill="#37807A"/>
</g>
<defs>
<clipPath id="clip0_1_79">
<rect width="13" height="16" fill="white"/>
</clipPath>
</defs>
</svg>
