<svg width="28" height="34" viewBox="0 0 28 34" fill="none" xmlns="http://www.w3.org/2000/svg">
<g clip-path="url(#clip0_1_1626)">
<path d="M12.8075 0.0375365C19.3324 -0.426595 25.3871 3.29119 27.3649 9.4291C29.8906 17.2767 24.5145 27.857 17.9363 32.4368C14.3975 34.8995 12.3566 34.3027 9.15718 31.7406C3.10732 26.9098 -1.80819 17.0494 0.644718 9.4291C2.31231 4.24787 7.24721 0.435363 12.8075 0.0375365ZM12.9868 3.58483C6.80123 4.09632 3.29153 9.24913 3.65511 15.0413C3.97505 20.0804 8.52699 27.9517 13.2437 30.225C13.9903 30.585 14.0872 30.5613 14.8192 30.1966C19.5263 27.8523 24.0152 20.1136 24.34 15.0366C24.7715 8.35402 20.0595 3.00229 12.982 3.58483H12.9868Z" fill="#353945"/>
<path d="M13.3506 7.0425C22.5951 6.21843 23.5937 19.8819 14.5916 20.5734C5.58954 21.2648 4.36793 7.83815 13.3506 7.0425ZM13.53 10.5803C9.361 11.1297 10.0591 17.4949 14.4026 17.0166C18.746 16.5382 17.9219 10.0025 13.53 10.5803Z" fill="#353945"/>
</g>
<defs>
<clipPath id="clip0_1_1626">
<rect width="28" height="34" fill="white"/>
</clipPath>
</defs>
</svg>
