<svg width="338" height="134" viewBox="0 0 338 134" fill="none" xmlns="http://www.w3.org/2000/svg">
<g clip-path="url(#clip0_1_59)">
<path d="M224.029 116.536H227.623L232.583 131.008L237.544 116.536H241.159V131.724H239.25V117.381L234.357 131.724H230.787L225.937 117.468V131.724H224.029V116.536Z" fill="white"/>
<path d="M255.075 116.536H266.098V118.293H257.051V123.262H265.2V124.977H257.051V129.945H266.098V131.724H255.075V116.536Z" fill="white"/>
<path d="M285.043 129.945C288.635 129.945 291.125 127.428 291.125 124.13C291.125 120.832 288.589 118.293 285.043 118.293H281.765V129.945H285.043ZM279.79 116.513H285.043C289.533 116.513 293.057 119.79 293.079 124.13C293.079 128.449 289.599 131.747 285.043 131.747H279.79V116.513Z" fill="white"/>
<path d="M308.523 116.534H306.547V131.724H308.523V116.534Z" fill="white"/>
<path d="M332.766 126.365L329.398 117.252L325.964 126.365H332.766ZM327.716 116.536H331.084L336.829 131.726H334.764L333.371 128.103H325.358L323.921 131.726H321.856L327.716 116.536Z" fill="white"/>
<path d="M0 59.052H10.3205V77.8054H31.9235V59.052H42.244V105.607H31.9235V86.7844H10.3205V105.607H0V59.052Z" fill="white"/>
<path d="M74.1788 87.9145C74.1788 82.7935 70.0502 78.5369 64.6847 78.5369C59.3192 78.5369 55.1907 82.8608 55.1907 87.9145C55.1907 92.9682 59.3174 97.3576 64.6847 97.3576C70.052 97.3576 74.1788 92.9682 74.1788 87.9145ZM45.9019 87.9145C45.9019 77.9382 54.3642 69.7581 64.6847 69.7581C75.0052 69.7581 83.4676 78.0055 83.4676 87.9145C83.4676 97.8235 75.0052 106.137 64.6847 106.137C54.3642 106.137 45.9019 97.8235 45.9019 87.9145Z" fill="white"/>
<path d="M115.801 87.9818C115.801 82.9281 111.398 78.4713 106.032 78.4713C100.667 78.4713 96.3313 82.9281 96.3313 87.9818C96.3313 93.0355 100.458 97.4249 106.032 97.4249C111.607 97.4249 115.801 93.0355 115.801 87.9818ZM87.0425 87.9818C87.0425 77.7398 95.23 69.7598 105.069 69.7598C109.195 69.7598 112.569 71.1556 115.114 73.3503V70.3567H125.09V105.605H115.114V102.679C112.569 104.808 109.267 106.138 105.069 106.138C95.23 106.138 87.0425 97.8252 87.0425 87.9818Z" fill="white"/>
<path d="M130.328 70.3568H140.304V73.6161C142.642 71.4214 146.015 69.7581 150.487 69.7581C158.399 69.7581 165.623 75.0137 165.623 83.7252V105.607H155.647V86.1874C155.647 81.6652 152.345 78.7389 148.423 78.7389C143.401 78.7389 140.304 82.6624 140.304 87.3849V105.609H130.328V70.3603V70.3568Z" fill="white"/>
<path d="M224.029 59.052H240.129L251.964 97.5579L263.798 59.052H279.966V105.607H269.99V69.4269L258.912 105.607H245.015L234.005 69.6253V105.607H224.029V59.052Z" fill="white"/>
<path d="M312.298 87.9818C312.298 82.9281 307.894 78.4713 302.529 78.4713C297.164 78.4713 292.828 82.9281 292.828 87.9818C292.828 93.0355 296.955 97.4249 302.529 97.4249C308.103 97.4249 312.298 93.0355 312.298 87.9818ZM283.539 87.9818C283.539 77.7398 291.727 69.7598 301.565 69.7598C305.692 69.7598 309.065 71.1556 311.611 73.3503V70.3567H321.587V105.605H311.611V102.679C309.065 104.808 305.763 106.138 301.565 106.138C291.727 106.138 283.539 97.8252 283.539 87.9818Z" fill="white"/>
<path d="M325.753 59.6506C325.753 56.3913 328.506 53.9309 331.876 53.9309C335.246 53.9309 338 56.3896 338 59.6506C338 62.9117 335.247 65.3031 331.876 65.3031C328.504 65.3031 325.753 62.9082 325.753 59.6506Z" fill="white"/>
<path d="M336.831 70.3584H326.855V105.607H336.831V70.3584Z" fill="white"/>
<path d="M188.186 96.6952C182.888 96.6952 178.485 92.5715 178.485 87.5178C178.485 82.4641 182.818 78.3404 188.186 78.3404C193.553 78.3404 197.955 82.4623 197.955 87.5178C197.955 92.5733 193.483 96.6952 188.186 96.6952ZM197.268 70.3568V73.416C194.722 71.2213 191.351 69.8237 187.222 69.7563C177.039 69.6235 169.196 77.2722 169.196 87.5142C169.196 97.7563 176.627 105.272 187.222 105.272C191.556 105.272 194.858 103.942 197.268 102.013V109.061C197.268 117.429 190.103 124.236 181.444 124.236C173.348 124.236 166.665 118.283 165.831 110.666H155.7C156.555 123.691 167.754 133.998 181.444 133.998C195.135 133.998 207.244 122.833 207.244 109.059V70.3533H197.268V70.3568Z" fill="white"/>
<path d="M197.656 39.411C194.567 34.5858 190.993 30.4603 187.578 27.0947C184.319 23.8815 181.208 21.3644 178.811 19.5912C178.115 20.1793 177.264 20.6186 176.302 20.8365C173.154 21.5486 170.006 19.6603 169.269 16.6171C168.531 13.5757 170.486 10.5325 173.632 9.81862C176.781 9.10653 179.927 10.9948 180.666 14.0362C180.944 15.1876 180.838 16.3355 180.427 17.3611C181.532 18.1741 182.778 19.1378 184.127 20.2537C188.93 24.2322 194.961 30.106 199.897 37.7388C201.979 40.9592 203.863 44.4966 205.373 48.3316C203.797 37.6892 198.054 13.7617 177.591 0.772275C177.591 0.772275 150.089 -4.17337 132.631 10.9505C132.631 10.9505 148.286 34.0881 149.028 52.3118C149.028 52.3118 190.64 43.9014 203.636 51.7538C202.118 47.244 200.035 43.1185 197.66 39.4092" fill="white"/>
</g>
<defs>
<clipPath id="clip0_1_59">
<rect width="338" height="134" fill="white"/>
</clipPath>
</defs>
</svg>
