<svg width="204" height="36" viewBox="0 0 204 36" fill="none" xmlns="http://www.w3.org/2000/svg">
<g clip-path="url(#clip0_6_2224)">
<path d="M153.869 28.1485H155.433L157.593 34.6552L159.753 28.1485H161.328V34.977H160.497V28.5283L158.365 34.977H156.811L154.699 28.5674V34.977H153.869V28.1485Z" fill="#37807A"/>
<path d="M167.388 28.1485H172.188V28.9385H168.248V31.1725H171.797V31.9434H168.248V34.1774H172.188V34.977H167.388V28.1485Z" fill="#37807A"/>
<path d="M180.438 34.1774C182.002 34.1774 183.087 33.0457 183.087 31.5627C183.087 30.0798 181.982 28.9385 180.438 28.9385H179.011V34.1774H180.438ZM178.15 28.1381H180.438C182.393 28.1381 183.928 29.6115 183.938 31.5627C183.938 33.5044 182.422 34.9874 180.438 34.9874H178.15V28.1381Z" fill="#37807A"/>
<path d="M190.663 28.1477H189.803V34.977H190.663V28.1477Z" fill="#37807A"/>
<path d="M201.221 32.5678L199.755 28.4702L198.259 32.5678H201.221ZM199.021 28.1485H200.488L202.99 34.9778H202.09L201.484 33.3491H197.994L197.369 34.9778H196.469L199.021 28.1485Z" fill="#37807A"/>
<path d="M56.3081 2.30287H60.8025V10.7346H70.2109V2.30287H74.7045V23.2345H70.2109V14.7717H60.8025V23.2345H56.3081V2.30287Z" fill="#37807A"/>
<path d="M88.6121 15.2798C88.6121 12.9774 86.8142 11.0635 84.4777 11.0635C82.1411 11.0635 80.3432 13.0076 80.3432 15.2798C80.3432 17.552 82.1403 19.5256 84.4777 19.5256C86.815 19.5256 88.6121 17.552 88.6121 15.2798ZM76.2974 15.2798C76.2974 10.7944 79.9825 7.11646 84.4769 7.11646C88.9712 7.11646 92.6564 10.8246 92.6564 15.2798C92.6564 19.735 88.9712 23.4726 84.4769 23.4726C79.9825 23.4726 76.2974 19.735 76.2974 15.2798Z" fill="#37807A"/>
<path d="M106.738 15.3101C106.738 13.0379 104.82 11.0341 102.484 11.0341C100.147 11.0341 98.2589 13.0379 98.2589 15.3101C98.2589 17.5823 100.056 19.5558 102.484 19.5558C104.911 19.5558 106.738 17.5823 106.738 15.3101ZM94.2139 15.3101C94.2139 10.7052 97.7793 7.11726 102.064 7.11726C103.861 7.11726 105.33 7.74484 106.438 8.73161V7.38565H110.783V23.2337H106.438V21.918C105.33 22.8753 103.892 23.4734 102.064 23.4734C97.7793 23.4734 94.2139 19.7358 94.2139 15.3101Z" fill="#37807A"/>
<path d="M113.063 7.38565H117.407V8.85107C118.426 7.8643 119.895 7.11646 121.842 7.11646C125.288 7.11646 128.433 9.47945 128.433 13.3963V23.2345H124.089V14.5033C124.089 12.47 122.651 11.1543 120.943 11.1543C118.756 11.1543 117.407 12.9184 117.407 15.0417V23.2353H113.063V7.38565Z" fill="#37807A"/>
<path d="M153.869 2.30287H160.879L166.033 19.6156L171.186 2.30287H178.227V23.2345H173.883V6.96753L169.059 23.2345H163.007L158.212 7.05673V23.2345H153.869V2.30287Z" fill="#37807A"/>
<path d="M192.308 15.3101C192.308 13.0379 190.39 11.0341 188.053 11.0341C185.717 11.0341 183.829 13.0379 183.829 15.3101C183.829 17.5823 185.626 19.5558 188.053 19.5558C190.481 19.5558 192.308 17.5823 192.308 15.3101ZM179.784 15.3101C179.784 10.7052 183.349 7.11726 187.634 7.11726C189.431 7.11726 190.9 7.74484 192.008 8.73161V7.38565H196.353V23.2337H192.008V21.918C190.9 22.8753 189.462 23.4734 187.634 23.4734C183.349 23.4734 179.784 19.7358 179.784 15.3101Z" fill="#37807A"/>
<path d="M198.167 2.57206C198.167 1.10664 199.365 0.000404358 200.833 0.000404358C202.3 0.000404358 203.5 1.10584 203.5 2.57206C203.5 4.03828 202.301 5.11345 200.833 5.11345C199.364 5.11345 198.167 4.03669 198.167 2.57206Z" fill="#CA2B38"/>
<path d="M202.991 7.38645H198.646V23.2345H202.991V7.38645Z" fill="#37807A"/>
<path d="M138.26 19.2277C135.953 19.2277 134.035 17.3736 134.035 15.1014C134.035 12.8292 135.922 10.9751 138.26 10.9751C140.597 10.9751 142.514 12.8284 142.514 15.1014C142.514 17.3744 140.567 19.2277 138.26 19.2277ZM142.214 7.38565V8.76108C141.105 7.77431 139.637 7.14593 137.839 7.11566C133.405 7.05593 129.989 10.4949 129.989 15.0998C129.989 19.7048 133.225 23.084 137.839 23.084C139.726 23.084 141.164 22.4859 142.214 21.6186V24.7875C142.214 28.5499 139.094 31.6105 135.323 31.6105C131.797 31.6105 128.887 28.9337 128.524 25.5091H124.112C124.484 31.3652 129.361 35.9996 135.323 35.9996C141.285 35.9996 146.558 30.9797 146.558 24.7867V7.38565H142.214Z" fill="#37807A"/>
<path d="M43.8435 27.1211C41.7847 23.8008 39.4018 20.9607 37.1259 18.6447C34.9538 16.4338 32.8806 14.7016 31.2822 13.4815C30.8185 13.8861 30.2519 14.1879 29.6096 14.3384C27.5116 14.8282 25.4129 13.5285 24.9221 11.4347C24.4305 9.34167 25.7329 7.24708 27.8308 6.75648C29.9288 6.26668 32.0267 7.56644 32.5183 9.65945C32.7042 10.4519 32.6332 11.2419 32.3595 11.9476C33.096 12.5075 33.9268 13.1693 34.8253 13.9378C38.0269 16.676 42.0464 20.7178 45.3366 25.9702C46.7235 28.1867 47.9796 30.6206 48.9859 33.2607C47.9357 25.9376 44.1069 9.4699 30.4674 0.53162C30.4674 0.53162 12.1365 -2.8715 0.5 7.53618C0.5 7.53618 10.9347 23.4591 11.4295 36.0004C11.4295 36.0004 39.1656 30.2128 47.8272 35.6165C46.8161 32.5129 45.4268 29.6736 43.8443 27.1211" fill="#37807A"/>
</g>
<defs>
<clipPath id="clip0_6_2224">
<rect width="203" height="36.0008" fill="white" transform="translate(0.5 -0.000406265)"/>
</clipPath>
</defs>
</svg>
