<svg width="22" height="22" viewBox="0 0 22 22" fill="none" xmlns="http://www.w3.org/2000/svg">
<path d="M1 11C1 16.471 5.47715 20.9063 11 20.9063C16.5228 20.9063 21 16.471 21 11C21 5.52893 16.5228 1.09375 11 1.09375C5.47715 1.09375 1 5.52893 1 11Z" stroke="#37807A" stroke-width="1.5" stroke-linecap="round" stroke-linejoin="round"/>
<path d="M12 1.09375C12 1.09375 15 5.02675 15 10.9999C15 16.9732 12 20.9063 12 20.9063" stroke="#37807A" stroke-width="1.5" stroke-linecap="round" stroke-linejoin="round"/>
<path d="M10 20.9063C10 20.9063 7 16.9732 7 10.9999C7 5.02675 10 1.09375 10 1.09375" stroke="#37807A" stroke-width="1.5" stroke-linecap="round" stroke-linejoin="round"/>
<path d="M2 13.9719H20" stroke="#37807A" stroke-width="1.5" stroke-linecap="round" stroke-linejoin="round"/>
<path d="M2 8.02808H20" stroke="#37807A" stroke-width="1.5" stroke-linecap="round" stroke-linejoin="round"/>
</svg>
